<?xml version="1.0" standalone="no"?>
<!DOCTYPE svg PUBLIC "-//W3C//DTD SVG 20010904//EN"
 "http://www.w3.org/TR/2001/REC-SVG-20010904/DTD/svg10.dtd">
<svg version="1.0" xmlns="http://www.w3.org/2000/svg"
 width="1890.000000pt" height="1417.000000pt" viewBox="0 0 1890.000000 1417.000000"
 preserveAspectRatio="xMidYMid meet">

<g transform="translate(0.000000,1417.000000) scale(0.100000,-0.100000)"
fill="#000000" stroke="none">
<path d="M0 7085 l0 -7085 9450 0 9450 0 0 7085 0 7085 -9450 0 -9450 0 0
-7085z m7542 6005 c7 -11 21 -20 30 -20 10 0 23 -9 30 -20 7 -11 21 -20 30
-20 10 0 23 -9 30 -20 7 -11 21 -20 30 -20 10 0 23 -9 30 -20 7 -11 21 -20 30
-20 10 0 23 -9 30 -20 7 -11 21 -20 30 -20 10 0 23 -9 30 -20 7 -11 20 -20 29
-20 35 0 40 -24 37 -181 l-3 -154 -152 -3 c-144 -2 -153 -1 -165 18 -7 11 -21
20 -30 20 -10 0 -23 9 -30 20 -7 11 -21 20 -30 20 -10 0 -23 9 -30 20 -7 11
-21 20 -30 20 -10 0 -23 9 -30 20 -7 11 -21 20 -30 20 -10 0 -23 9 -30 20 -7
11 -21 20 -30 20 -10 0 -23 9 -30 20 -7 11 -20 20 -28 20 -35 0 -40 21 -40
170 0 100 4 150 12 158 8 8 57 12 155 12 132 0 144 -2 155 -20z m-1119 -35 c9
-4 20 -18 23 -30 3 -13 16 -26 30 -29 14 -4 26 -16 30 -30 3 -14 16 -27 30
-30 14 -4 26 -16 30 -30 3 -14 16 -27 30 -30 14 -4 26 -16 30 -30 3 -14 16
-27 30 -30 14 -4 26 -16 30 -30 3 -14 16 -27 30 -30 14 -4 26 -16 30 -31 3
-14 12 -25 19 -25 8 0 21 -7 29 -16 22 -22 24 -285 2 -303 -9 -8 -45 -11 -97
-9 -77 3 -84 5 -96 28 -6 13 -21 28 -33 32 -11 4 -25 19 -30 33 -5 14 -16 25
-25 25 -8 0 -20 9 -27 20 -15 23 -46 25 -92 6 -45 -19 -83 -61 -101 -115 -20
-59 -19 -83 5 -104 11 -9 20 -23 20 -31 0 -8 11 -17 25 -20 15 -4 27 -16 31
-32 6 -22 10 -24 38 -18 17 4 37 15 44 25 7 11 21 19 30 19 10 0 23 9 30 20 7
11 20 20 30 20 9 0 23 9 30 20 7 12 23 20 38 20 14 0 33 9 42 20 16 19 32 21
228 27 116 3 222 3 237 -1 l27 -6 0 -561 c0 -522 1 -560 17 -557 9 2 26 19 37
38 20 34 21 49 21 532 l0 497 -35 30 c-19 17 -39 30 -44 31 -5 0 -18 7 -28 17
-10 9 -28 21 -41 27 -17 9 -23 22 -25 57 -2 30 2 50 11 58 16 13 406 28 450
17 15 -3 27 -12 27 -20 0 -7 14 -16 30 -19 17 -4 30 -13 30 -20 0 -8 14 -17
30 -20 17 -4 30 -13 30 -20 0 -8 14 -17 30 -20 17 -4 30 -13 30 -20 0 -8 14
-17 30 -20 17 -4 30 -13 30 -20 0 -8 14 -17 30 -20 17 -4 30 -13 30 -20 0 -8
14 -17 30 -20 l30 -6 0 -211 0 -210 234 0 c260 0 266 -1 266 -64 0 -42 -16
-61 -63 -76 -80 -25 -74 -70 30 -216 55 -78 78 -103 84 -93 24 38 1 78 -56 96
-27 9 -30 14 -33 57 l-3 48 114 114 c72 72 122 114 135 114 11 0 24 5 27 10 4
6 100 10 254 10 279 0 274 1 269 -72 -3 -40 -6 -45 -53 -70 -77 -41 -175 -148
-459 -500 l-38 -47 173 -233 c216 -292 248 -329 332 -385 65 -43 67 -46 67
-87 0 -47 -13 -66 -46 -66 -14 0 -59 -37 -131 -110 l-110 -110 -296 0 c-162 0
-302 3 -311 6 -12 5 -16 20 -16 61 0 46 3 56 19 60 11 3 21 13 24 24 3 10 12
19 21 19 9 0 16 7 16 15 0 9 7 18 15 21 8 4 15 14 15 24 0 18 -166 260 -179
260 -11 0 -31 -47 -31 -74 0 -29 25 -52 70 -63 34 -9 35 -10 38 -65 3 -51 1
-57 -20 -63 -52 -14 -78 -28 -78 -41 0 -7 -9 -16 -20 -19 -11 -3 -20 -12 -20
-20 0 -8 -9 -17 -20 -20 -11 -3 -20 -12 -20 -20 0 -8 -9 -17 -20 -20 -11 -3
-20 -12 -20 -20 0 -8 -9 -17 -20 -20 -11 -3 -20 -12 -20 -20 0 -7 -7 -16 -16
-19 -9 -3 -127 -6 -263 -6 -179 0 -250 3 -259 12 -7 7 -12 30 -12 51 0 37 7
47 113 152 61 62 125 119 141 127 16 9 80 78 142 154 l113 139 -265 3 c-251 2
-265 3 -276 22 -7 11 -21 20 -30 20 -10 0 -23 9 -30 20 -7 11 -21 20 -30 20
-10 0 -23 9 -30 20 -7 11 -21 20 -30 20 -10 0 -23 9 -30 20 -7 11 -21 20 -30
20 -10 0 -23 9 -30 20 -7 11 -21 20 -32 20 -18 0 -19 -10 -14 -289 6 -341 9
-353 93 -384 68 -25 75 -33 75 -81 0 -48 -13 -66 -50 -66 -14 0 -30 -8 -38
-20 -7 -11 -20 -20 -30 -20 -9 0 -23 -9 -30 -20 -7 -11 -20 -20 -30 -20 -9 0
-23 -9 -30 -20 -7 -11 -20 -20 -30 -20 -9 0 -23 -9 -30 -20 -7 -11 -20 -20
-30 -20 -9 0 -23 -9 -30 -20 -7 -11 -20 -20 -30 -20 -9 0 -23 -9 -30 -20 -12
-19 -23 -20 -311 -20 -330 0 -331 0 -331 61 0 41 15 66 45 73 14 4 25 11 25
17 0 5 12 14 28 20 15 5 36 22 47 37 20 26 20 45 23 820 l3 792 -96 0 -95 0 0
-495 0 -495 25 -10 c14 -5 29 -20 34 -33 5 -14 19 -27 30 -30 12 -3 25 -15 29
-27 4 -11 19 -27 32 -33 20 -10 26 -21 28 -55 5 -74 16 -72 -323 -72 -167 0
-310 3 -319 6 -9 3 -16 16 -16 29 0 17 -7 24 -30 29 -23 4 -30 11 -30 30 0 18
-7 25 -30 30 -23 4 -30 11 -30 30 0 18 -7 25 -30 30 -23 4 -30 11 -30 30 0 18
-7 25 -30 30 -23 4 -30 11 -30 30 0 18 -7 25 -30 30 -23 4 -30 11 -30 30 0 18
-7 25 -31 30 -30 6 -30 6 -27 62 l3 55 54 22 c87 35 95 54 99 218 l4 139 -25
0 c-21 0 -26 -6 -29 -27 -2 -22 -9 -29 -30 -31 -21 -3 -27 -9 -30 -30 -3 -26
-5 -27 -79 -30 -82 -3 -88 0 -107 53 -8 22 -11 -67 -11 -340 -1 -430 -2 -426
84 -460 72 -29 75 -32 75 -74 0 -40 -14 -61 -42 -61 -11 0 -18 -7 -18 -18 0
-23 -19 -42 -42 -42 -11 0 -18 -7 -18 -18 0 -23 -19 -42 -42 -42 -11 0 -18 -7
-18 -20 0 -11 -9 -25 -20 -32 -11 -7 -20 -20 -20 -28 0 -21 -20 -40 -42 -40
-11 0 -18 -7 -18 -18 0 -23 -19 -42 -42 -42 -11 0 -18 -7 -18 -18 0 -40 -13
-42 -310 -42 -209 0 -289 3 -298 12 -7 7 -12 29 -12 50 0 33 5 42 30 56 16 9
30 23 30 30 0 7 13 21 30 30 16 9 30 22 30 29 0 6 10 19 23 28 l22 15 3 655 3
655 -45 0 c-25 0 -48 -4 -51 -10 -3 -5 -14 -10 -25 -10 -11 0 -22 -11 -29 -30
-6 -20 -17 -30 -30 -30 -12 0 -23 -10 -30 -30 -5 -16 -14 -30 -20 -30 -5 0
-14 -13 -20 -30 -6 -19 -17 -30 -29 -30 -11 0 -23 -7 -26 -17 -5 -11 16 -39
69 -93 41 -43 75 -86 75 -96 0 -26 -130 -146 -218 -201 -40 -25 -107 -57 -150
-71 -68 -23 -93 -26 -217 -27 -145 0 -207 11 -299 56 -22 10 -42 17 -44 14 -6
-6 -20 -249 -21 -352 -1 -67 -16 -93 -54 -93 -13 0 -30 -9 -40 -20 -9 -11 -27
-20 -40 -20 -12 0 -30 -9 -40 -20 -10 -12 -29 -20 -50 -20 -20 0 -39 -8 -50
-20 -10 -12 -29 -20 -50 -20 -20 0 -39 -8 -50 -20 -10 -12 -29 -20 -50 -20
-20 0 -39 -8 -50 -20 -11 -13 -29 -20 -52 -20 -24 0 -35 -5 -35 -14 0 -8 -7
-22 -16 -30 -14 -14 -79 -16 -567 -16 -304 0 -558 4 -565 9 -9 5 -12 24 -10
56 3 46 5 49 42 61 21 8 50 26 65 41 l26 28 0 672 0 671 -24 26 c-13 14 -42
31 -65 39 -40 13 -41 15 -44 62 -4 55 5 65 61 65 32 0 37 3 37 24 0 27 16 36
66 36 22 0 34 5 34 14 0 17 22 26 66 26 22 0 34 5 34 14 0 17 22 26 66 26 22
0 34 5 34 14 0 16 21 26 56 26 14 0 24 6 24 14 0 16 21 26 56 26 14 0 24 6 24
14 0 23 24 26 229 26 l197 0 17 73 c21 90 82 215 140 285 127 153 315 230 536
220 186 -9 318 -76 483 -245 40 -41 93 -90 118 -109 78 -60 271 -257 307 -313
26 -39 38 -50 46 -42 8 8 161 11 514 11 329 0 503 3 503 10 0 6 -9 10 -20 10
-23 0 -40 28 -40 65 0 41 17 62 56 69 90 17 107 43 124 191 16 139 36 219 77
297 76 146 220 245 401 278 54 10 328 6 355 -5z"/>
<path d="M7250 12940 l0 -140 135 0 135 0 0 140 0 140 -135 0 -135 0 0 -140z"/>
<path d="M7548 12908 l-3 -133 -120 -5 -120 -6 138 -2 137 -2 0 140 c0 117 -2
140 -15 140 -12 0 -15 -24 -17 -132z"/>
<path d="M7608 12868 l-3 -133 -120 -5 -120 -6 138 -2 137 -2 0 140 c0 117 -2
140 -15 140 -12 0 -15 -24 -17 -132z"/>
<path d="M7668 12828 l-3 -133 -120 -5 -120 -6 138 -2 137 -2 0 140 c0 117 -2
140 -15 140 -12 0 -15 -24 -17 -132z"/>
<path d="M7728 12788 l-3 -133 -120 -5 -120 -6 138 -2 137 -2 0 140 c0 117 -2
140 -15 140 -12 0 -15 -24 -17 -132z"/>
<path d="M7788 12748 l-3 -133 -120 -5 -120 -6 138 -2 137 -2 0 140 c0 117 -2
140 -15 140 -12 0 -15 -24 -17 -132z"/>
<path d="M7848 12708 l-3 -133 -120 -5 -120 -6 138 -2 137 -2 0 140 c0 117 -2
140 -15 140 -12 0 -15 -24 -17 -132z"/>
<path d="M6100 13031 c-171 -25 -303 -102 -381 -224 -50 -78 -75 -160 -94
-308 -8 -65 -21 -133 -28 -152 -19 -44 -58 -74 -107 -82 -38 -6 -40 -9 -40
-41 l0 -34 91 0 91 0 -5 -517 c-3 -345 -8 -529 -15 -552 -16 -49 -48 -78 -103
-96 -46 -16 -49 -19 -49 -51 l0 -34 295 0 295 0 0 35 c0 30 -4 36 -27 41 -65
16 -104 45 -126 92 -22 46 -22 58 -25 565 l-3 517 175 0 176 0 0 75 0 75 -175
0 -175 0 0 113 c0 275 48 417 153 456 46 18 128 13 163 -8 34 -21 68 -70 79
-113 7 -27 9 -28 81 -28 l74 0 0 129 c0 106 -3 130 -15 135 -27 10 -248 15
-305 7z"/>
<path d="M6450 12862 c0 -71 -4 -112 -12 -120 -7 -7 -34 -12 -60 -12 -36 0
-48 -4 -48 -15 0 -12 15 -15 75 -15 l75 0 0 129 c0 105 -3 130 -15 135 -13 5
-15 -11 -15 -102z"/>
<path d="M6510 12802 c0 -71 -4 -112 -12 -120 -7 -7 -34 -12 -60 -12 -36 0
-48 -4 -48 -15 0 -12 15 -15 75 -15 l75 0 0 129 c0 105 -3 130 -15 135 -13 5
-15 -11 -15 -102z"/>
<path d="M6046 12880 c-62 -20 -107 -86 -125 -185 -14 -75 -15 -325 -1 -325 6
0 10 29 10 68 0 275 76 422 218 422 24 0 33 3 26 10 -14 14 -94 21 -128 10z"/>
<path d="M6570 12742 c0 -71 -4 -112 -12 -120 -7 -7 -34 -12 -60 -12 -36 0
-48 -4 -48 -15 0 -12 15 -15 75 -15 l75 0 0 129 c0 105 -3 130 -15 135 -13 5
-15 -11 -15 -102z"/>
<path d="M6106 12820 c-62 -19 -107 -85 -125 -185 -13 -67 -15 -265 -3 -265 4
0 13 53 19 118 7 68 20 140 32 173 31 83 99 139 167 139 30 0 31 16 2 24 -30
8 -56 6 -92 -4z"/>
<path d="M3350 12800 c-217 -34 -391 -181 -469 -394 -41 -115 -52 -187 -52
-340 1 -439 180 -664 551 -691 204 -15 399 64 558 227 l42 44 -44 43 -45 44
-51 -46 c-115 -104 -225 -142 -382 -135 -78 4 -107 10 -151 32 -137 67 -216
229 -217 444 l0 82 460 0 460 0 0 33 c0 66 -21 214 -40 285 -67 244 -217 364
-474 376 -50 3 -116 1 -146 -4z m181 -122 c114 -34 179 -158 203 -385 l7 -63
-325 0 -324 0 5 43 c8 73 35 170 62 227 33 71 113 152 171 173 54 19 148 21
201 5z"/>
<path d="M3352 12642 c-115 -41 -183 -149 -217 -345 -6 -37 -5 -38 21 -35 24
3 28 10 44 68 50 189 163 299 309 300 64 1 31 18 -46 25 -42 4 -72 0 -111 -13z"/>
<path d="M3432 12582 c-92 -33 -159 -116 -194 -241 -23 -84 -24 -83 14 -79 24
2 33 9 38 28 14 50 53 120 91 164 48 55 114 88 191 95 54 6 58 7 46 23 -21 28
-120 33 -186 10z"/>
<path d="M3512 12501 c-67 -23 -124 -77 -162 -155 -39 -77 -38 -86 5 -86 30 0
36 5 52 38 27 59 111 136 167 155 27 9 60 17 72 17 18 0 22 4 17 18 -4 9 -11
20 -17 24 -19 13 -79 8 -134 -11z"/>
<path d="M3592 12421 c-57 -20 -89 -45 -133 -105 -36 -49 -36 -56 1 -56 24 0
43 13 88 58 34 35 72 64 95 71 26 9 37 18 37 32 0 24 -19 24 -88 0z"/>
<path d="M3645 12351 c-22 -10 -56 -35 -74 -55 l-35 -36 55 0 c41 0 61 5 82
23 25 20 28 26 20 54 l-8 32 -40 -18z"/>
<path d="M6630 12682 c0 -71 -4 -112 -12 -120 -7 -7 -34 -12 -60 -12 -36 0
-48 -4 -48 -15 0 -12 15 -15 75 -15 l75 0 0 129 c0 105 -3 130 -15 135 -13 5
-15 -11 -15 -102z"/>
<path d="M6166 12760 c-62 -19 -107 -85 -125 -185 -14 -74 -14 -205 -1 -205 6
0 10 3 10 8 0 45 25 185 41 227 23 61 80 119 127 130 21 4 29 11 25 21 -6 15
-33 17 -77 4z"/>
<path d="M6690 12622 c0 -71 -4 -112 -12 -120 -7 -7 -34 -12 -60 -12 -36 0
-48 -4 -48 -15 0 -12 15 -15 75 -15 l75 0 0 129 c0 105 -3 130 -15 135 -13 5
-15 -11 -15 -102z"/>
<path d="M6226 12700 c-37 -11 -73 -45 -96 -90 -35 -69 -54 -240 -26 -240 9 0
15 19 19 59 13 126 78 229 155 246 21 4 29 11 25 21 -6 15 -33 17 -77 4z"/>
<path d="M6750 12562 c0 -71 -4 -112 -12 -120 -7 -7 -34 -12 -60 -12 -36 0
-48 -4 -48 -15 0 -12 15 -15 75 -15 l75 0 0 129 c0 105 -3 130 -15 135 -13 5
-15 -11 -15 -102z"/>
<path d="M6286 12640 c-62 -19 -107 -85 -125 -185 -14 -76 -14 -85 4 -85 8 0
17 12 21 28 26 119 76 193 144 213 26 8 37 16 33 25 -6 16 -33 17 -77 4z"/>
<path d="M6346 12580 c-57 -18 -109 -89 -122 -168 -5 -30 -3 -40 9 -45 12 -4
20 7 33 45 21 64 75 124 124 139 26 8 37 16 33 25 -6 16 -33 17 -77 4z"/>
<path d="M3984 12498 c32 -85 58 -246 54 -338 l-3 -75 -459 -3 -458 -2 7 -87
c4 -48 13 -111 21 -140 13 -49 59 -153 68 -153 2 0 -5 28 -16 63 -13 39 -22
103 -25 175 l-6 112 462 0 461 0 0 33 c0 66 -21 214 -40 285 -18 66 -74 192
-85 192 -2 0 6 -28 19 -62z"/>
<path d="M7213 12513 l-133 -4 0 -32 c0 -31 3 -34 50 -46 64 -16 106 -52 120
-99 14 -53 13 -969 -1 -1028 -14 -55 -53 -96 -108 -112 -38 -12 -41 -16 -41
-47 l0 -35 285 0 285 0 0 33 c0 31 -4 35 -54 56 -30 12 -62 33 -70 46 -35 53
-38 112 -37 698 l2 577 -83 -2 c-46 -1 -143 -4 -215 -5z"/>
<path d="M7540 12084 c0 -312 3 -395 13 -392 9 4 13 94 15 396 2 344 0 392
-13 392 -13 0 -15 -49 -15 -396z"/>
<path d="M7600 12090 c0 -318 5 -384 24 -334 3 9 6 166 6 350 0 290 -2 334
-15 334 -13 0 -15 -46 -15 -350z"/>
<path d="M4075 12415 c23 -72 39 -185 39 -280 l1 -110 -459 -3 -458 -2 7 -87
c8 -102 27 -179 55 -231 11 -20 18 -28 15 -17 -16 64 -25 137 -25 206 l0 79
460 0 460 0 0 33 c0 122 -42 325 -81 395 -11 21 -17 28 -14 17z"/>
<path d="M7660 12104 c0 -232 3 -295 13 -292 9 4 13 74 15 296 2 255 0 292
-13 292 -13 0 -15 -38 -15 -296z"/>
<path d="M7720 12110 c0 -216 2 -250 15 -250 13 0 15 34 15 250 0 216 -2 250
-15 250 -13 0 -15 -34 -15 -250z"/>
<path d="M4155 12335 c23 -72 39 -185 39 -280 l1 -110 -457 -3 -458 -2 0 -28
c0 -99 43 -290 69 -306 4 -3 2 23 -6 57 -7 34 -13 99 -13 145 l0 82 448 0
c246 0 453 4 461 9 31 20 -20 331 -70 420 -11 20 -17 27 -14 16z"/>
<path d="M4224 12278 c24 -65 56 -226 56 -285 0 -27 4 -33 21 -33 20 0 21 3
15 59 -10 83 -41 192 -76 262 -17 32 -32 59 -35 59 -2 0 6 -28 19 -62z"/>
<path d="M6818 12333 l-138 -4 0 -33 c0 -31 2 -33 51 -44 75 -18 106 -44 124
-104 13 -44 15 -165 15 -862 0 -557 -4 -823 -11 -850 -14 -49 -54 -88 -108
-105 -38 -11 -41 -15 -41 -46 l0 -35 285 0 285 0 0 34 c0 30 -4 35 -43 50 -62
24 -95 62 -107 125 -5 30 -10 180 -10 335 l0 281 -22 10 c-39 17 -37 118 2
128 20 5 20 13 20 566 l0 561 -82 -2 c-46 -1 -145 -4 -220 -5z"/>
<path d="M7780 12100 c0 -189 2 -220 15 -220 13 0 15 31 15 220 0 189 -2 220
-15 220 -13 0 -15 -31 -15 -220z"/>
<path d="M6600 12257 c0 -32 2 -34 51 -45 75 -18 106 -44 124 -106 14 -46 15
-161 13 -889 -3 -803 -2 -836 15 -819 34 35 38 127 35 932 -3 762 -4 786 -23
825 -16 33 -28 43 -65 54 -72 21 -95 35 -98 59 -2 16 -10 22 -28 22 -21 0 -24
-5 -24 -33z"/>
<path d="M6260 12232 c0 -26 -5 -53 -12 -60 -8 -8 -62 -12 -175 -12 l-164 0 3
-507 c2 -316 7 -514 13 -525 7 -11 9 150 7 493 l-3 509 176 0 175 0 0 75 c0
43 -4 75 -10 75 -5 0 -10 -22 -10 -48z"/>
<path d="M7840 12080 c0 -171 2 -200 15 -200 13 0 15 29 15 200 0 171 -2 200
-15 200 -13 0 -15 -29 -15 -200z"/>
<path d="M6540 12217 c0 -32 2 -34 51 -45 75 -18 106 -44 124 -106 13 -45 15
-162 13 -879 -2 -454 1 -822 5 -818 23 23 28 181 25 921 -3 762 -4 786 -23
825 -16 33 -28 43 -65 54 -72 21 -95 35 -98 59 -5 36 -32 27 -32 -11z"/>
<path d="M2410 12203 c0 -24 8 -32 53 -53 92 -44 87 2 87 -755 0 -757 5 -711
-87 -755 -45 -21 -53 -29 -53 -52 l0 -28 544 0 544 0 6 43 c3 23 8 123 12 223
l7 181 -31 21 c-16 12 -42 22 -56 22 -27 0 -24 8 -61 -140 -35 -136 -86 -208
-163 -230 -20 -5 -126 -10 -235 -10 l-198 0 4 753 c2 413 8 764 12 780 l7 27
-196 0 -196 0 0 -27z"/>
<path d="M6320 12168 c0 -38 3 -49 10 -38 13 20 13 90 0 90 -5 0 -10 -24 -10
-52z"/>
<path d="M4315 12195 c4 -11 14 -55 22 -97 10 -51 21 -78 29 -78 8 0 14 4 14
9 0 19 -41 137 -56 161 -11 18 -13 19 -9 5z"/>
<path d="M6480 12177 c0 -32 2 -34 51 -45 75 -18 106 -44 124 -106 13 -45 15
-162 13 -874 -2 -452 0 -822 4 -822 19 0 23 139 23 890 0 795 0 816 -20 855
-16 33 -28 43 -65 54 -72 21 -95 35 -98 59 -5 36 -32 27 -32 -11z"/>
<path d="M2330 12163 c0 -24 8 -32 53 -53 93 -45 88 5 85 -768 l-3 -673 22 25
c15 17 23 45 28 88 3 35 5 336 3 670 -3 589 -4 607 -23 633 -11 15 -40 35 -65
44 -32 12 -46 23 -48 39 -2 16 -10 22 -28 22 -20 0 -24 -5 -24 -27z"/>
<path d="M6420 12137 c0 -32 2 -34 51 -45 75 -18 106 -44 124 -104 13 -44 15
-166 15 -867 0 -652 3 -813 13 -803 9 10 12 193 12 845 0 812 0 833 -20 872
-16 33 -28 43 -65 54 -72 21 -95 35 -98 59 -5 36 -32 27 -32 -11z"/>
<path d="M5510 12145 c0 -11 11 -15 40 -15 29 0 40 4 40 15 0 11 -11 15 -40
15 -29 0 -40 -4 -40 -15z"/>
<path d="M2250 12123 c0 -24 8 -32 53 -53 93 -44 88 4 85 -762 -3 -630 -2
-666 14 -657 10 5 21 22 25 37 5 15 8 320 8 679 0 637 0 652 -20 678 -11 15
-40 35 -65 44 -32 12 -46 23 -48 39 -2 16 -10 22 -28 22 -20 0 -24 -5 -24 -27z"/>
<path d="M4396 12110 c7 -28 12 -35 18 -29 2 2 -2 15 -10 29 l-15 25 7 -25z"/>
<path d="M6360 12097 c0 -32 2 -34 51 -45 75 -18 106 -44 124 -104 13 -44 15
-166 15 -867 0 -652 3 -813 13 -803 9 10 12 193 12 845 0 812 0 833 -20 872
-16 33 -28 43 -65 54 -72 21 -95 35 -98 59 -5 36 -32 27 -32 -11z"/>
<path d="M2150 12083 c0 -24 8 -32 53 -53 93 -45 88 5 85 -768 -2 -369 0 -672
3 -672 3 0 18 11 32 24 20 18 26 37 32 87 3 35 5 337 3 671 -3 589 -4 607 -23
633 -11 15 -40 35 -65 44 -32 12 -46 23 -48 39 -3 18 -10 22 -38 22 -30 0 -34
-3 -34 -27z"/>
<path d="M4470 11895 l0 -215 58 0 59 0 22 77 c39 134 88 207 154 232 16 6 80
11 143 11 l114 0 0 -660 c0 -432 -4 -676 -11 -709 -14 -69 -40 -97 -104 -117
-50 -16 -55 -20 -55 -46 l0 -28 280 0 280 0 0 28 c0 26 -5 30 -55 46 -65 20
-91 52 -105 127 -6 31 -10 316 -10 705 l0 654 114 0 c128 0 157 -7 204 -53
l32 -31 0 62 c0 56 -2 62 -21 62 -14 0 -24 10 -32 29 -7 20 -20 31 -40 35 -16
3 -254 6 -528 6 l-499 0 0 -215z"/>
<path d="M5570 12085 c0 -8 5 -15 10 -15 6 0 10 7 10 15 0 8 -4 15 -10 15 -5
0 -10 -7 -10 -15z"/>
<path d="M5972 11590 c2 -322 7 -513 13 -519 7 -7 9 158 7 494 l-3 505 141 0
c118 0 140 2 140 15 0 13 -23 15 -150 15 l-151 0 3 -510z"/>
<path d="M6300 12057 c0 -32 2 -34 51 -45 75 -18 106 -44 124 -104 13 -44 15
-166 15 -867 0 -652 3 -813 13 -803 9 10 12 193 12 845 0 812 0 833 -20 872
-16 33 -28 43 -65 54 -72 21 -95 35 -98 59 -5 36 -32 27 -32 -11z"/>
<path d="M2050 12043 c0 -24 8 -32 53 -53 93 -45 88 5 85 -768 -3 -724 -4
-706 46 -639 21 28 21 33 21 692 0 649 0 664 -20 690 -11 15 -40 35 -65 44
-32 12 -46 23 -48 39 -3 18 -10 22 -38 22 -30 0 -34 -3 -34 -27z"/>
<path d="M4410 11835 l0 -215 60 0 c46 0 60 3 60 14 0 10 -14 16 -42 18 l-43
3 -3 198 c-2 166 -5 197 -17 197 -13 0 -15 -32 -15 -215z"/>
<path d="M6030 11545 c0 -323 3 -495 10 -495 7 0 10 167 10 480 l0 480 110 0
c91 0 110 3 110 15 0 13 -20 15 -120 15 l-120 0 0 -495z"/>
<path d="M1950 12003 c0 -24 8 -32 53 -53 93 -45 88 5 85 -768 -3 -724 -4
-706 46 -639 21 28 21 33 21 692 0 649 0 664 -20 690 -11 15 -40 35 -65 44
-32 12 -46 23 -48 39 -3 18 -10 22 -38 22 -30 0 -34 -3 -34 -27z"/>
<path d="M4350 11775 l0 -215 60 0 c46 0 60 3 60 14 0 10 -14 16 -42 18 l-43
3 -3 198 c-2 166 -5 197 -17 197 -13 0 -15 -32 -15 -215z"/>
<path d="M6090 11485 c0 -323 3 -495 10 -495 7 0 10 167 10 480 l0 480 153 1
c137 1 149 2 122 14 -20 10 -72 14 -162 15 l-133 0 0 -495z"/>
<path d="M1850 11943 c0 -24 8 -32 53 -53 92 -44 87 3 87 -758 0 -508 3 -663
12 -660 6 2 21 17 32 32 21 27 21 37 21 691 0 654 0 664 -21 691 -11 15 -39
34 -63 42 -23 8 -45 20 -48 28 -3 8 -19 14 -39 14 -30 0 -34 -3 -34 -27z"/>
<path d="M4792 11960 c-62 -15 -45 -20 62 -20 l106 0 -2 -681 c-2 -538 0 -674
9 -652 9 21 12 198 13 696 l0 667 -77 -1 c-43 -1 -93 -5 -111 -9z"/>
<path d="M5280 11955 c0 -12 14 -15 64 -15 36 0 77 -5 93 -11 56 -21 103 -82
138 -178 l14 -36 0 58 c1 91 -47 166 -120 187 -19 6 -69 10 -111 10 -63 0 -78
-3 -78 -15z"/>
<path d="M4290 11715 l0 -215 60 0 c46 0 60 3 60 14 0 10 -14 16 -42 18 l-43
3 -3 198 c-2 166 -5 197 -17 197 -13 0 -15 -32 -15 -215z"/>
<path d="M6150 11425 c0 -323 3 -495 10 -495 7 0 10 167 10 480 l0 480 135 0
c113 0 135 2 135 15 0 13 -23 15 -145 15 l-145 0 0 -495z"/>
<path d="M4740 11903 c-14 -3 -29 -9 -34 -14 -6 -5 30 -9 92 -9 l102 0 0 -667
c0 -435 4 -663 10 -653 6 9 10 269 10 683 l0 667 -77 -1 c-43 -1 -89 -4 -103
-6z"/>
<path d="M5280 11895 c0 -10 10 -15 34 -15 103 0 175 -83 221 -255 14 -50 22
-65 36 -65 25 0 24 8 -7 109 -58 192 -107 241 -236 241 -36 0 -48 -4 -48 -15z"/>
<path d="M4252 11658 l-2 -218 60 0 c46 0 60 3 60 14 0 11 -15 16 -52 18 l-53
3 -5 200 -6 200 -2 -217z"/>
<path d="M3365 11774 c8 -101 25 -176 42 -181 8 -3 10 28 6 116 l-6 121 369 0
c203 0 386 3 407 6 104 18 -2 24 -394 24 l-431 0 7 -86z"/>
<path d="M6210 11365 c0 -323 3 -495 10 -495 7 0 10 167 10 480 l0 480 110 0
c91 0 110 3 110 15 0 13 -20 15 -120 15 l-120 0 0 -495z"/>
<path d="M4688 11843 c-44 -11 -10 -23 67 -23 l85 0 0 -645 c0 -423 3 -645 10
-645 7 0 10 227 10 660 l0 660 -77 -1 c-43 -1 -86 -3 -95 -6z"/>
<path d="M5280 11836 c0 -8 15 -19 33 -25 68 -23 126 -111 163 -247 l17 -64
48 0 c36 0 49 4 49 14 0 9 -12 16 -32 18 -30 3 -32 7 -58 88 -45 145 -84 201
-151 220 -47 14 -69 12 -69 -4z"/>
<path d="M7790 11817 c0 -29 5 -35 39 -50 59 -27 149 -129 336 -387 94 -128
171 -237 173 -241 5 -11 -345 -444 -415 -514 -31 -31 -78 -68 -105 -81 -43
-22 -48 -28 -48 -59 l0 -35 240 0 240 0 0 34 c0 29 -4 34 -30 40 -71 14 -100
87 -64 159 19 36 255 347 264 347 7 -1 220 -303 242 -343 9 -18 17 -49 18 -70
0 -46 -35 -83 -86 -93 -31 -6 -34 -10 -34 -40 l0 -34 290 0 290 0 0 35 c0 29
-5 37 -32 51 -18 9 -59 42 -91 73 -79 75 -451 576 -441 593 5 7 85 108 180
223 189 232 268 312 332 340 37 17 42 23 42 52 l0 33 -240 0 -240 0 0 -34 c0
-27 5 -35 23 -40 84 -21 101 -93 44 -187 -43 -71 -217 -291 -228 -287 -10 4
-201 273 -222 315 -21 40 -22 92 -2 120 9 13 34 28 55 34 36 11 40 15 40 46
l0 33 -285 0 -285 0 0 -33z"/>
<path d="M2811 11312 c-1 -476 0 -522 15 -508 8 9 31 16 50 16 23 0 34 5 34
14 0 25 30 46 63 46 20 0 39 8 50 20 10 12 29 20 50 20 20 0 39 8 50 20 10 12
29 20 50 20 20 0 39 8 50 20 9 11 27 20 40 20 12 0 30 9 40 20 9 11 28 20 41
20 14 0 29 7 34 15 4 9 21 19 36 23 l27 7 -65 60 c-35 33 -124 114 -197 180
-271 246 -300 283 -346 435 l-22 75 0 -523z"/>
<path d="M7730 11796 c0 -22 6 -36 16 -40 22 -8 22 -8 16 37 -6 48 -32 51 -32
3z"/>
<path d="M8590 11796 c0 -24 5 -35 18 -38 15 -4 17 1 14 34 -5 49 -32 53 -32
4z"/>
<path d="M4190 11595 l0 -215 60 0 c46 0 60 3 60 14 0 10 -14 16 -42 18 l-43
3 -3 198 c-2 166 -5 197 -17 197 -13 0 -15 -32 -15 -215z"/>
<path d="M3444 11723 c10 -113 16 -143 32 -143 11 0 14 19 14 85 l0 85 180 0
c116 0 188 4 205 12 19 9 28 9 37 0 7 -7 46 -12 99 -12 68 0 88 3 93 15 3 8
17 15 31 15 14 0 25 5 25 10 0 6 -127 10 -361 10 l-362 0 7 -77z"/>
<path d="M4650 11775 c0 -12 15 -15 75 -15 60 0 75 3 75 15 0 12 -15 15 -75
15 -60 0 -75 -3 -75 -15z"/>
<path d="M7691 11759 c-1 -32 3 -37 38 -52 59 -26 149 -129 330 -379 91 -125
168 -225 173 -222 11 7 17 -2 -177 264 -181 247 -255 332 -311 352 -25 9 -37
21 -43 43 l-9 30 -1 -36z"/>
<path d="M8552 11760 c-1 -32 3 -37 41 -55 23 -11 48 -31 54 -45 l13 -25 0 26
c0 30 -22 52 -65 66 -22 7 -32 18 -36 39 -7 28 -7 28 -7 -6z"/>
<path d="M5280 11768 c0 -6 19 -27 41 -46 46 -40 88 -118 114 -217 l18 -65 58
0 c45 0 59 3 59 14 0 11 -15 16 -52 18 l-51 3 -27 85 c-34 108 -61 161 -100
194 -33 27 -60 34 -60 14z"/>
<path d="M4130 11535 l0 -215 60 0 c46 0 60 3 60 14 0 10 -14 16 -42 18 l-43
3 -3 198 c-2 166 -5 197 -17 197 -13 0 -15 -32 -15 -215z"/>
<path d="M7651 11719 c-1 -32 3 -37 38 -52 59 -26 149 -129 330 -379 91 -125
168 -225 173 -222 11 7 17 -2 -177 264 -181 247 -255 332 -311 352 -25 9 -37
21 -43 43 l-9 30 -1 -36z"/>
<path d="M7859 11673 c42 -43 152 -183 244 -310 93 -128 173 -235 177 -238 5
-3 11 -1 14 3 6 11 -326 468 -388 534 -40 43 -100 88 -117 88 -4 0 28 -35 70
-77z"/>
<path d="M8512 11720 c-1 -32 3 -37 41 -55 23 -11 48 -31 54 -45 l13 -25 0 26
c0 30 -22 52 -65 66 -22 7 -32 18 -36 39 -7 28 -7 28 -7 -6z"/>
<path d="M8663 11731 c21 -18 27 -31 27 -62 0 -22 -7 -54 -15 -72 -15 -30 -15
-31 1 -12 21 26 44 79 44 103 0 23 -26 47 -60 57 l-25 7 28 -21z"/>
<path d="M4637 11723 c-17 -16 -3 -23 48 -23 l55 0 0 -640 c0 -420 3 -640 10
-640 7 0 10 225 10 655 l0 655 -58 0 c-32 0 -62 -3 -65 -7z"/>
<path d="M3520 11688 c0 -18 3 -49 6 -69 5 -30 10 -36 25 -32 15 4 19 15 19
44 l0 39 99 0 c92 0 102 2 128 25 l28 24 -152 1 -153 0 0 -32z"/>
<path d="M3975 11710 c12 -4 27 -15 34 -24 8 -10 29 -16 52 -16 35 0 39 3 39
25 0 24 -2 25 -72 24 -49 0 -66 -3 -53 -9z"/>
<path d="M5280 11677 c0 -20 5 -39 11 -43 17 -10 65 -118 84 -189 l18 -65 58
0 c45 0 59 4 59 14 0 10 -13 16 -42 18 l-41 3 -27 85 c-32 102 -59 157 -94
189 l-26 24 0 -36z"/>
<path d="M7611 11679 c-1 -32 3 -37 38 -52 59 -26 149 -129 330 -379 91 -125
168 -225 173 -222 11 7 17 -2 -177 264 -181 247 -255 332 -311 352 -25 9 -37
21 -43 43 l-9 30 -1 -36z"/>
<path d="M8472 11680 c-1 -32 3 -37 41 -55 23 -11 48 -31 54 -45 l13 -25 0 26
c0 30 -22 52 -65 66 -22 7 -32 18 -36 39 -7 28 -7 28 -7 -6z"/>
<path d="M4615 11661 c-6 -5 -19 -11 -30 -14 -11 -3 6 -5 38 -6 l57 -1 0 -640
c0 -420 3 -640 10 -640 7 0 10 225 10 655 l0 655 -38 0 c-21 0 -42 -4 -47 -9z"/>
<path d="M7571 11639 c-1 -32 3 -37 38 -52 59 -26 149 -129 330 -379 91 -125
168 -225 173 -222 11 7 17 -2 -177 264 -181 247 -255 332 -311 352 -25 9 -37
21 -43 43 l-9 30 -1 -36z"/>
<path d="M8432 11640 c-1 -32 3 -37 41 -55 23 -11 48 -31 54 -45 l13 -25 0 26
c0 30 -22 52 -65 66 -22 7 -32 18 -36 39 -7 28 -7 28 -7 -6z"/>
<path d="M3600 11615 c0 -24 0 -24 40 -10 76 27 80 34 18 35 -55 0 -58 -1 -58
-25z"/>
<path d="M4075 11620 c10 -11 20 -20 22 -20 1 0 3 9 3 20 0 14 -7 20 -22 20
-20 0 -21 -1 -3 -20z"/>
<path d="M3979 11594 c-64 -68 -184 -157 -256 -191 -98 -45 -180 -63 -303 -64
-122 -1 -102 -14 38 -24 206 -15 400 64 560 227 l42 44 -23 22 -23 22 -35 -36z"/>
<path d="M7531 11599 c-1 -32 3 -37 38 -52 59 -26 149 -129 330 -379 91 -125
168 -225 173 -222 11 7 17 -2 -177 264 -181 247 -255 332 -311 352 -25 9 -37
21 -43 43 l-9 30 -1 -36z"/>
<path d="M8392 11600 c-1 -32 3 -37 41 -55 23 -11 48 -31 54 -45 l13 -25 0 26
c0 30 -22 52 -65 66 -22 7 -32 18 -36 39 -7 28 -7 28 -7 -6z"/>
<path d="M5280 11542 c0 -23 12 -83 27 -132 l28 -90 57 0 c44 0 58 4 58 14 0
10 -13 16 -42 18 l-41 3 -27 85 c-14 47 -34 99 -43 115 l-16 30 -1 -43z"/>
<path d="M4054 11529 c-101 -109 -258 -204 -386 -234 -80 -19 -245 -19 -323 0
-79 19 -87 18 -45 -5 52 -27 143 -48 240 -55 176 -13 343 43 485 162 65 54 70
62 73 102 4 59 -8 67 -44 30z"/>
<path d="M7546 11418 c4 -57 12 -116 19 -133 10 -25 11 -10 8 90 -5 130 -7
145 -23 145 -7 0 -8 -34 -4 -102z"/>
<path d="M7606 11377 c6 -88 19 -159 27 -146 1 2 1 57 -1 121 -3 89 -7 118
-18 122 -12 5 -13 -11 -8 -97z"/>
<path d="M7666 11339 c6 -97 12 -129 22 -129 14 0 2 188 -13 200 -12 10 -14 0
-9 -71z"/>
<path d="M4025 11352 c-80 -63 -185 -115 -277 -137 -80 -19 -245 -19 -323 0
-79 19 -87 18 -45 -5 95 -50 277 -70 410 -46 91 16 219 73 278 123 30 25 33
32 30 74 l-3 47 -70 -56z"/>
<path d="M3288 11343 c7 -3 16 -2 19 1 4 3 -2 6 -13 5 -11 0 -14 -3 -6 -6z"/>
<path d="M4294 11309 c-101 -109 -258 -204 -386 -234 -80 -19 -245 -19 -323 0
-79 19 -87 18 -45 -5 52 -27 143 -48 240 -55 204 -15 399 64 558 227 l42 44
-28 27 -28 27 -30 -31z"/>
<path d="M7728 11277 c3 -73 10 -107 20 -107 12 0 1 148 -11 159 -9 7 -11 -6
-9 -52z"/>
<path d="M4080 11253 c-57 -46 -170 -99 -252 -118 -35 -8 -110 -15 -168 -16
-122 -1 -102 -14 38 -24 166 -12 321 35 460 139 34 26 62 50 62 52 0 2 -21 4
-47 3 -40 0 -56 -6 -93 -36z"/>
<path d="M4374 11229 c-101 -109 -258 -204 -386 -234 -80 -19 -245 -19 -323 0
-79 19 -87 18 -45 -5 52 -27 143 -48 240 -55 204 -15 399 64 558 227 l42 44
-28 27 -28 27 -30 -31z"/>
<path d="M7790 11208 c0 -48 7 -78 19 -78 9 0 1 103 -10 115 -5 5 -9 -9 -9
-37z"/>
<path d="M7850 11146 c0 -29 9 -56 19 -56 10 0 1 69 -10 76 -5 3 -9 -6 -9 -20z"/>
<path d="M7710 11121 c0 -38 -19 -41 -291 -44 l-264 -2 288 -3 287 -2 0 35 c0
19 -4 35 -10 35 -5 0 -10 -8 -10 -19z"/>
<path d="M3528 11123 c7 -3 16 -2 19 1 4 3 -2 6 -13 5 -11 0 -14 -3 -6 -6z"/>
<path d="M7770 11081 c0 -38 -19 -41 -291 -44 l-264 -2 288 -3 287 -2 0 35 c0
19 -4 35 -10 35 -5 0 -10 -8 -10 -19z"/>
<path d="M7910 11079 c0 -8 12 -26 26 -40 22 -20 25 -21 16 -4 -6 11 -17 29
-26 40 -12 16 -15 17 -16 4z"/>
<path d="M7830 11041 c0 -38 -19 -41 -291 -44 l-264 -2 288 -3 287 -2 0 35 c0
19 -4 35 -10 35 -5 0 -10 -8 -10 -19z"/>
<path d="M7890 11001 c0 -38 -19 -41 -291 -44 l-264 -2 288 -3 287 -2 0 35 c0
19 -4 35 -10 35 -5 0 -10 -8 -10 -19z"/>
<path d="M3321 10973 c-5 -21 -17 -65 -25 -99 -9 -34 -23 -78 -31 -98 -20 -48
-3 -38 29 17 22 38 66 173 66 204 0 30 -30 11 -39 -24z"/>
<path d="M7950 10961 c0 -38 -19 -41 -291 -44 l-264 -2 288 -3 287 -2 0 35 c0
19 -4 35 -10 35 -5 0 -10 -8 -10 -19z"/>
<path d="M3241 10933 c-5 -21 -17 -67 -26 -103 -9 -35 -21 -73 -27 -83 -5 -10
-8 -23 -5 -30 10 -32 97 182 97 240 0 30 -30 11 -39 -24z"/>
<path d="M8406 10962 c-2 -4 36 -63 85 -132 107 -149 121 -173 129 -225 5 -38
6 -39 18 -18 8 15 10 34 5 54 -8 31 -211 328 -225 329 -4 0 -9 -3 -12 -8z"/>
<path d="M6082 10930 c-12 -19 -23 -20 -287 -20 -238 0 -275 -2 -275 -15 0
-13 39 -15 295 -15 l295 0 0 35 c0 39 -9 44 -28 15z"/>
<path d="M8010 10921 c0 -38 -19 -41 -291 -44 l-264 -2 277 -3 c265 -2 278 -1
288 17 13 25 13 51 0 51 -5 0 -10 -8 -10 -19z"/>
<path d="M3141 10893 c-5 -21 -17 -66 -26 -100 -8 -34 -18 -69 -21 -78 -4 -10
0 -15 15 -15 25 0 44 33 71 131 25 93 25 99 -5 99 -20 0 -26 -7 -34 -37z"/>
<path d="M8370 10911 c0 -4 37 -59 82 -122 45 -63 95 -136 111 -164 27 -48 28
-49 22 -15 -7 35 -15 48 -135 218 -60 85 -80 106 -80 83z"/>
<path d="M3041 10853 c-5 -21 -16 -64 -25 -96 l-14 -58 26 3 c24 3 29 11 49
78 29 99 29 110 -2 110 -20 0 -26 -7 -34 -37z"/>
<path d="M6142 10870 c-12 -19 -23 -20 -287 -20 -238 0 -275 -2 -275 -15 0
-13 39 -15 295 -15 l295 0 0 35 c0 39 -9 44 -28 15z"/>
<path d="M8336 10872 c-3 -5 34 -65 83 -133 48 -68 96 -139 105 -157 21 -40
29 -38 17 4 -6 22 -154 241 -196 292 -2 2 -6 -1 -9 -6z"/>
<path d="M2940 10808 c-6 -24 -15 -58 -20 -75 -8 -31 -7 -33 20 -33 26 0 29 4
44 65 21 83 21 85 -9 85 -20 0 -26 -7 -35 -42z"/>
<path d="M6202 10810 c-12 -19 -23 -20 -287 -20 -238 0 -275 -2 -275 -15 0
-13 39 -15 295 -15 l295 0 0 35 c0 39 -9 44 -28 15z"/>
<path d="M8300 10821 c0 -7 39 -68 88 -136 48 -67 92 -131 99 -141 11 -18 12
-18 12 1 1 11 -37 74 -85 140 -94 133 -114 156 -114 136z"/>
<path d="M2841 10753 c-15 -52 -14 -53 13 -53 18 0 25 7 30 28 4 15 9 35 12
45 4 13 -1 17 -20 17 -20 0 -27 -7 -35 -37z"/>
<path d="M8260 10774 c0 -3 39 -61 88 -129 48 -67 92 -131 99 -141 11 -18 12
-18 12 1 1 21 -175 275 -190 275 -5 0 -9 -3 -9 -6z"/>
<path d="M6262 10750 c-12 -19 -23 -20 -287 -20 -238 0 -275 -2 -275 -15 0
-13 39 -15 295 -15 l295 0 0 35 c0 39 -9 44 -28 15z"/>
<path d="M8230 10729 c0 -8 37 -66 83 -130 45 -64 87 -125 94 -135 11 -18 12
-18 12 1 1 11 -38 74 -85 140 -97 136 -104 145 -104 124z"/>
<path d="M6322 10690 c-12 -19 -23 -20 -287 -20 -238 0 -275 -2 -275 -15 0
-13 39 -15 295 -15 l295 0 0 35 c0 39 -9 44 -28 15z"/>
<path d="M6382 10630 c-12 -19 -23 -20 -287 -20 -238 0 -275 -2 -275 -15 0
-13 39 -15 295 -15 l295 0 0 35 c0 39 -9 44 -28 15z"/>
<path d="M2343 10583 c-7 -2 -13 -18 -13 -34 l0 -29 548 2 547 3 -520 5 -520
5 -3 28 c-3 26 -13 31 -39 20z"/>
<path d="M2263 10543 c-7 -2 -13 -18 -13 -34 l0 -29 548 2 547 3 -520 5 -520
5 -3 28 c-3 26 -13 31 -39 20z"/>
<path d="M2178 10508 c-22 -7 -28 -16 -28 -39 l0 -29 548 2 547 3 -510 5 -510
5 -3 33 c-4 35 -4 35 -44 20z"/>
<path d="M7717 10503 c-13 -12 -8 -73 6 -73 9 0 11 12 9 40 -4 42 -5 44 -15
33z"/>
<path d="M8500 10465 c0 -24 5 -35 15 -35 10 0 15 11 15 35 0 24 -5 35 -15 35
-10 0 -15 -11 -15 -35z"/>
<path d="M2078 10468 c-22 -7 -28 -16 -28 -39 l0 -29 548 2 547 3 -510 5 -510
5 -3 33 c-4 35 -4 35 -44 20z"/>
<path d="M8461 10428 l-1 -38 293 2 292 3 -285 5 -285 5 -6 30 c-6 29 -7 29
-8 -7z"/>
<path d="M1978 10428 c-22 -7 -28 -16 -28 -39 l0 -29 548 2 547 3 -510 5 -510
5 -3 33 c-4 35 -4 35 -44 20z"/>
<path d="M4790 10410 l0 -30 280 0 c242 0 280 2 280 15 0 13 -35 15 -254 15
-213 0 -256 2 -266 15 -21 25 -40 18 -40 -15z"/>
<path d="M7670 10406 c0 -14 25 -16 243 -14 l242 3 -229 2 c-148 2 -234 7
-243 14 -10 9 -13 8 -13 -5z"/>
<path d="M8421 10388 l-1 -38 293 2 292 3 -285 5 -285 5 -6 30 c-6 29 -7 29
-8 -7z"/>
<path d="M1878 10368 c-22 -7 -28 -16 -28 -39 l0 -29 545 0 c476 0 545 2 545
15 0 13 -66 15 -507 17 l-508 3 -3 23 c-4 24 -5 25 -44 10z"/>
<path d="M4730 10350 l0 -30 280 0 c242 0 280 2 280 15 0 13 -35 15 -254 15
-213 0 -256 2 -266 15 -21 25 -40 18 -40 -15z"/>
<path d="M7630 10366 c0 -14 25 -16 243 -14 l242 3 -229 2 c-148 2 -234 7
-243 14 -10 9 -13 8 -13 -5z"/>
<path d="M8381 10348 l-1 -38 293 2 292 3 -285 5 -285 5 -6 30 c-6 29 -7 29
-8 -7z"/>
<path d="M7590 10326 c0 -14 25 -16 243 -14 l242 3 -229 2 c-148 2 -234 7
-243 14 -10 9 -13 8 -13 -5z"/>
<path d="M8341 10308 l-1 -38 293 2 292 3 -285 5 -285 5 -6 30 c-6 29 -7 29
-8 -7z"/>
<path d="M4670 10290 l0 -30 280 0 c242 0 280 2 280 15 0 13 -35 15 -254 15
-213 0 -256 2 -266 15 -21 25 -40 18 -40 -15z"/>
<path d="M7550 10286 c0 -14 25 -16 243 -14 l242 3 -229 2 c-148 2 -234 7
-243 14 -10 9 -13 8 -13 -5z"/>
<path d="M8301 10268 l-1 -38 293 2 292 3 -285 5 -285 5 -6 30 c-6 29 -7 29
-8 -7z"/>
<path d="M6643 10283 c-7 -2 -13 -20 -13 -39 l0 -34 288 2 287 2 -260 6 -260
5 -10 33 c-9 33 -11 34 -32 25z"/>
<path d="M4630 10232 l0 -32 280 0 c242 0 280 2 280 15 0 13 -36 15 -262 15
-229 0 -264 2 -280 17 -17 15 -18 14 -18 -15z"/>
<path d="M7510 10246 c0 -14 25 -16 243 -14 l242 3 -229 2 c-148 2 -234 7
-243 14 -10 9 -13 8 -13 -5z"/>
<path d="M6570 10205 l0 -35 288 2 287 3 -268 2 -269 3 -11 30 c-15 40 -27 38
-27 -5z"/>
<path d="M4570 10170 l0 -30 280 0 c242 0 280 2 280 15 0 13 -35 15 -254 15
-213 0 -256 2 -266 15 -21 25 -40 18 -40 -15z"/>
<path d="M6510 10165 l0 -35 288 2 287 3 -268 2 -269 3 -11 30 c-15 40 -27 38
-27 -5z"/>
<path d="M6450 10125 l0 -35 288 2 287 3 -268 2 -269 3 -11 30 c-15 40 -27 38
-27 -5z"/>
<path d="M4510 10110 l0 -30 280 0 c242 0 280 2 280 15 0 13 -35 15 -254 15
-213 0 -256 2 -266 15 -21 25 -40 18 -40 -15z"/>
<path d="M6390 10085 l0 -35 288 2 287 3 -268 2 -269 3 -11 30 c-15 40 -27 38
-27 -5z"/>
<path d="M6330 10045 l0 -35 288 2 287 3 -268 2 -269 3 -11 30 c-15 40 -27 38
-27 -5z"/>
</g>
</svg>
