<?xml version="1.0" standalone="no"?>
<!DOCTYPE svg PUBLIC "-//W3C//DTD SVG 20010904//EN"
 "http://www.w3.org/TR/2001/REC-SVG-20010904/DTD/svg10.dtd">
<svg version="1.0" xmlns="http://www.w3.org/2000/svg"
 width="1890.000000pt" height="1417.000000pt" viewBox="0 0 1890.000000 1417.000000"
 preserveAspectRatio="xMidYMid meet">

<g transform="translate(0.000000,1417.000000) scale(0.100000,-0.100000)"
fill="#000000" stroke="none">
<path d="M0 7085 l0 -7085 9450 0 9450 0 0 7085 0 7085 -9450 0 -9450 0 0
-7085z m5963 6090 c9 -4 20 -18 23 -30 3 -13 16 -26 30 -29 14 -4 26 -16 30
-30 3 -14 16 -27 30 -30 14 -4 26 -16 30 -30 3 -14 16 -27 30 -30 14 -4 26
-16 30 -30 3 -14 16 -27 30 -30 14 -4 26 -16 30 -30 3 -14 16 -27 30 -30 14
-4 26 -16 30 -31 3 -14 12 -25 19 -25 8 0 21 -7 29 -16 13 -12 16 -39 16 -132
l0 -117 88 7 c113 8 356 10 376 2 9 -3 16 -12 16 -19 0 -7 14 -15 30 -18 17
-4 30 -13 30 -20 0 -8 14 -17 30 -20 17 -4 30 -13 30 -20 0 -8 14 -17 30 -20
17 -4 30 -13 30 -20 0 -8 14 -17 30 -20 17 -4 30 -13 30 -20 0 -8 14 -17 30
-20 17 -4 30 -13 30 -20 0 -8 14 -17 30 -20 l30 -6 0 -231 0 -230 269 0 c299
0 301 -1 301 -64 0 -42 -16 -61 -63 -76 -80 -25 -74 -70 30 -216 55 -78 78
-103 84 -93 24 38 1 78 -56 96 -27 9 -30 14 -33 57 l-3 48 114 114 c72 72 122
114 135 114 11 0 24 5 27 10 4 6 100 10 254 10 279 0 274 1 269 -72 -3 -40 -6
-45 -53 -70 -77 -41 -175 -148 -459 -500 l-38 -47 173 -233 c216 -292 248
-329 332 -385 65 -43 67 -46 67 -87 0 -47 -13 -66 -46 -66 -14 0 -59 -37 -131
-110 l-110 -110 -296 0 c-162 0 -302 3 -311 6 -12 5 -16 20 -16 61 0 46 3 56
19 60 11 3 21 13 24 24 3 10 12 19 21 19 9 0 16 7 16 15 0 9 7 18 15 21 8 4
15 14 15 24 0 18 -166 260 -179 260 -11 0 -31 -47 -31 -74 0 -29 25 -52 70
-63 34 -9 35 -10 38 -65 3 -51 1 -57 -20 -63 -52 -14 -78 -28 -78 -41 0 -7 -9
-16 -20 -19 -11 -3 -20 -12 -20 -20 0 -8 -9 -17 -20 -20 -11 -3 -20 -12 -20
-20 0 -8 -9 -17 -20 -20 -11 -3 -20 -12 -20 -20 0 -8 -9 -17 -20 -20 -11 -3
-20 -12 -20 -20 0 -7 -7 -16 -16 -19 -9 -3 -127 -6 -263 -6 -179 0 -250 3
-259 12 -7 7 -12 30 -12 52 0 37 7 46 118 156 65 65 127 120 139 124 12 4 87
88 167 187 l146 181 -17 30 -18 30 -3 -34 c-2 -18 -8 -39 -14 -45 -8 -10 -82
-13 -309 -13 -288 0 -299 1 -311 20 -7 11 -21 20 -30 20 -10 0 -23 9 -30 20
-7 11 -21 20 -30 20 -10 0 -23 9 -30 20 -7 11 -21 20 -30 20 -10 0 -23 9 -30
20 -7 11 -21 20 -30 20 -10 0 -23 9 -30 20 -7 11 -20 20 -30 20 -9 0 -23 8
-30 18 -7 10 -26 22 -42 26 l-29 7 5 -343 c4 -315 6 -347 24 -383 15 -32 28
-43 69 -58 68 -25 75 -33 75 -81 0 -48 -13 -66 -50 -66 -14 0 -30 -8 -38 -20
-7 -11 -20 -20 -30 -20 -9 0 -23 -9 -30 -20 -7 -11 -20 -20 -30 -20 -9 0 -23
-9 -30 -20 -7 -11 -20 -20 -30 -20 -9 0 -23 -9 -30 -20 -7 -11 -20 -20 -30
-20 -9 0 -23 -9 -30 -20 -7 -11 -20 -20 -30 -20 -9 0 -23 -9 -30 -20 -12 -19
-23 -20 -311 -20 -330 0 -331 0 -331 61 0 41 15 66 45 73 14 4 25 11 25 17 0
5 12 14 28 20 15 5 36 22 47 37 18 25 20 46 23 275 l4 247 -155 0 c-86 0 -162
3 -171 6 -9 3 -16 16 -16 29 0 17 -7 24 -30 29 -23 4 -30 11 -30 30 0 18 -7
25 -30 30 -23 4 -30 11 -30 30 0 18 -7 25 -30 30 -23 4 -30 11 -30 30 0 18 -7
25 -30 30 -23 4 -30 11 -30 30 0 18 -7 25 -30 30 -23 4 -30 11 -30 30 0 18 -7
25 -31 30 -30 6 -30 6 -27 62 l3 55 54 22 c92 37 95 47 99 268 l4 189 -26 0
c-21 0 -26 -5 -26 -26 0 -17 -6 -28 -19 -31 -12 -3 -21 -15 -23 -32 -2 -20 -9
-27 -30 -29 -21 -3 -27 -9 -30 -30 -2 -21 -9 -28 -30 -30 -21 -3 -27 -9 -30
-30 -3 -26 -5 -27 -79 -30 -82 -3 -88 0 -107 53 -8 22 -11 -67 -11 -340 -1
-430 -2 -426 84 -460 72 -29 75 -32 75 -74 0 -40 -14 -61 -42 -61 -11 0 -18
-7 -18 -18 0 -23 -19 -42 -42 -42 -11 0 -18 -7 -18 -18 0 -23 -19 -42 -42 -42
-11 0 -18 -7 -18 -20 0 -11 -9 -25 -20 -32 -11 -7 -20 -20 -20 -28 0 -21 -20
-40 -42 -40 -11 0 -18 -7 -18 -18 0 -23 -19 -42 -42 -42 -11 0 -18 -7 -18 -18
0 -40 -13 -42 -310 -42 -209 0 -289 3 -298 12 -7 7 -12 29 -12 50 0 33 5 42
30 56 16 9 30 23 30 30 0 7 13 21 30 30 16 9 30 22 30 29 0 6 10 19 22 27 20
14 21 24 26 242 5 220 4 227 -14 220 -10 -4 -50 -15 -89 -23 -86 -18 -282 -12
-370 11 -73 20 -178 68 -222 102 l-32 25 -5 -23 c-3 -13 -8 -103 -12 -201 -7
-189 -12 -207 -57 -207 -13 0 -30 -9 -40 -20 -9 -11 -27 -20 -40 -20 -12 0
-30 -9 -40 -20 -10 -12 -29 -20 -50 -20 -20 0 -39 -8 -50 -20 -10 -12 -29 -20
-50 -20 -20 0 -39 -8 -50 -20 -10 -12 -29 -20 -50 -20 -20 0 -39 -8 -50 -20
-11 -13 -29 -20 -52 -20 -24 0 -35 -5 -35 -14 0 -8 -7 -22 -16 -30 -14 -14
-79 -16 -567 -16 -304 0 -558 4 -565 9 -9 5 -12 24 -10 56 3 46 5 49 42 61 21
8 50 26 65 41 l26 28 0 672 0 671 -24 26 c-13 14 -42 31 -65 39 -40 13 -41 15
-44 62 -4 55 5 65 61 65 32 0 37 3 37 24 0 27 16 36 66 36 22 0 34 5 34 14 0
17 22 26 66 26 22 0 34 5 34 14 0 17 22 26 66 26 22 0 34 5 34 14 0 16 21 26
56 26 14 0 24 6 24 14 0 16 21 26 56 26 14 0 24 6 24 14 0 23 24 26 209 26
l178 0 6 58 c28 262 182 509 384 615 126 65 199 82 363 82 156 0 216 -12 314
-62 90 -46 209 -136 306 -233 52 -53 117 -114 145 -135 69 -55 273 -262 303
-307 l25 -38 302 0 c298 0 303 0 298 20 -3 11 -14 20 -24 20 -22 0 -39 29 -39
65 0 41 17 62 56 69 90 17 107 43 124 191 16 139 36 219 77 297 76 146 220
245 401 278 54 10 328 6 355 -5z m869 -65 c7 -11 21 -20 30 -20 10 0 23 -9 30
-20 7 -11 21 -20 30 -20 10 0 23 -9 30 -20 7 -11 21 -20 30 -20 10 0 23 -9 30
-20 7 -11 21 -20 30 -20 10 0 23 -9 30 -20 7 -11 21 -20 30 -20 10 0 23 -9 30
-20 7 -11 20 -20 29 -20 35 0 40 -24 37 -181 l-3 -154 -152 -3 c-144 -2 -153
-1 -165 18 -7 11 -21 20 -30 20 -10 0 -23 9 -30 20 -7 11 -21 20 -30 20 -10 0
-23 9 -30 20 -7 11 -21 20 -30 20 -10 0 -23 9 -30 20 -7 11 -21 20 -30 20 -10
0 -23 9 -30 20 -7 11 -21 20 -30 20 -10 0 -23 9 -30 20 -7 11 -20 20 -28 20
-35 0 -40 21 -40 170 0 100 4 150 12 158 8 8 57 12 155 12 132 0 144 -2 155
-20z"/>
<path d="M5640 13151 c-171 -25 -303 -102 -381 -224 -50 -78 -75 -160 -94
-308 -8 -65 -21 -133 -28 -152 -19 -44 -58 -74 -107 -82 -38 -6 -40 -9 -40
-41 l0 -34 91 0 91 0 -5 -517 c-3 -345 -8 -529 -15 -552 -16 -49 -48 -78 -103
-96 -46 -16 -49 -19 -49 -51 l0 -34 295 0 295 0 0 35 c0 30 -4 36 -27 41 -65
16 -104 45 -126 92 -22 46 -22 58 -25 565 l-3 517 175 0 176 0 0 75 0 75 -175
0 -175 0 0 113 c0 275 48 417 153 456 46 18 128 13 163 -8 34 -21 68 -70 79
-113 7 -27 9 -28 81 -28 l74 0 0 129 c0 106 -3 130 -15 135 -27 10 -248 15
-305 7z"/>
<path d="M5990 12982 c0 -71 -4 -112 -12 -120 -7 -7 -34 -12 -60 -12 -36 0
-48 -4 -48 -15 0 -12 15 -15 75 -15 l75 0 0 129 c0 105 -3 130 -15 135 -13 5
-15 -11 -15 -102z"/>
<path d="M6050 12922 c0 -71 -4 -112 -12 -120 -7 -7 -34 -12 -60 -12 -36 0
-48 -4 -48 -15 0 -12 15 -15 75 -15 l75 0 0 129 c0 105 -3 130 -15 135 -13 5
-15 -11 -15 -102z"/>
<path d="M5586 13000 c-62 -20 -107 -86 -125 -185 -14 -75 -15 -325 -1 -325 6
0 10 29 10 68 0 275 76 422 218 422 24 0 33 3 26 10 -14 14 -94 21 -128 10z"/>
<path d="M3204 12980 c-228 -32 -404 -161 -510 -375 -76 -154 -88 -216 -88
-460 -1 -186 2 -220 22 -300 65 -258 210 -415 439 -476 107 -29 318 -30 412
-3 36 11 64 22 63 27 -1 4 -2 45 -2 91 l0 83 -52 -14 c-79 -21 -247 -13 -320
16 -116 45 -204 156 -243 306 -15 58 -34 214 -35 283 l0 32 494 0 495 0 3 23
c2 16 11 23 31 25 33 4 34 16 12 172 -42 312 -176 493 -410 554 -76 19 -231
27 -311 16z m232 -148 c109 -56 173 -196 190 -419 l7 -83 -366 0 -367 0 6 48
c30 240 125 405 267 462 70 27 202 24 263 -8z"/>
<path d="M3227 12820 c-151 -38 -249 -182 -283 -413 l-6 -48 37 3 38 3 19 79
c49 210 186 345 351 346 51 1 52 1 25 16 -35 18 -132 26 -181 14z"/>
<path d="M3327 12750 c-137 -35 -238 -165 -272 -353 l-7 -38 37 3 c35 3 39 6
50 43 50 169 172 281 321 294 l63 6 -17 22 c-13 18 -30 24 -77 27 -33 3 -77 1
-98 -4z"/>
<path d="M3417 12659 c-61 -14 -112 -45 -154 -93 -39 -45 -86 -129 -98 -179
-7 -26 -6 -27 34 -27 39 0 42 2 66 51 53 103 150 179 253 197 40 7 41 8 29 32
-10 20 -21 25 -52 27 -22 1 -57 -3 -78 -8z"/>
<path d="M3507 12569 c-84 -20 -147 -69 -201 -156 -14 -24 -26 -45 -26 -48 0
-3 19 -5 43 -5 37 0 46 4 58 26 21 40 105 111 153 129 37 14 42 20 38 41 -5
26 -8 27 -65 13z"/>
<path d="M3519 12470 c-19 -10 -53 -38 -75 -62 l-39 -43 58 -3 c49 -3 62 1 93
24 30 23 35 32 32 63 -4 43 -19 48 -69 21z"/>
<path d="M6110 12862 c0 -71 -4 -112 -12 -120 -7 -7 -34 -12 -60 -12 -36 0
-48 -4 -48 -15 0 -12 15 -15 75 -15 l75 0 0 129 c0 105 -3 130 -15 135 -13 5
-15 -11 -15 -102z"/>
<path d="M5646 12940 c-62 -19 -107 -85 -125 -185 -13 -67 -15 -265 -3 -265 4
0 13 53 19 118 7 68 20 140 32 173 31 83 99 139 167 139 30 0 31 16 2 24 -30
8 -56 6 -92 -4z"/>
<path d="M6170 12802 c0 -71 -4 -112 -12 -120 -7 -7 -34 -12 -60 -12 -36 0
-48 -4 -48 -15 0 -12 15 -15 75 -15 l75 0 0 129 c0 105 -3 130 -15 135 -13 5
-15 -11 -15 -102z"/>
<path d="M5706 12880 c-62 -19 -107 -85 -125 -185 -14 -74 -14 -205 -1 -205 6
0 10 3 10 8 0 45 25 185 41 227 23 61 80 119 127 130 21 4 29 11 25 21 -6 15
-33 17 -77 4z"/>
<path d="M6230 12742 c0 -71 -4 -112 -12 -120 -7 -7 -34 -12 -60 -12 -36 0
-48 -4 -48 -15 0 -12 15 -15 75 -15 l75 0 0 129 c0 105 -3 130 -15 135 -13 5
-15 -11 -15 -102z"/>
<path d="M5766 12820 c-37 -11 -73 -45 -96 -90 -35 -69 -54 -240 -26 -240 9 0
15 19 19 59 13 126 78 229 155 246 21 4 29 11 25 21 -6 15 -33 17 -77 4z"/>
<path d="M6290 12682 c0 -71 -4 -112 -12 -120 -7 -7 -34 -12 -60 -12 -36 0
-48 -4 -48 -15 0 -12 15 -15 75 -15 l75 0 0 129 c0 105 -3 130 -15 135 -13 5
-15 -11 -15 -102z"/>
<path d="M5826 12760 c-62 -19 -107 -85 -125 -185 -14 -76 -14 -85 4 -85 8 0
17 12 21 28 26 119 76 193 144 213 26 8 37 16 33 25 -6 16 -33 17 -77 4z"/>
<path d="M3882 12700 c39 -84 76 -230 83 -333 9 -123 10 -127 46 -127 24 0 29
4 25 18 -2 9 -7 49 -11 87 -14 139 -74 301 -145 385 l-29 35 31 -65z"/>
<path d="M5886 12700 c-57 -18 -109 -89 -122 -168 -5 -30 -3 -40 9 -45 12 -4
20 7 33 45 21 64 75 124 124 139 26 8 37 16 33 25 -6 16 -33 17 -77 4z"/>
<path d="M5934 12636 c-44 -19 -81 -63 -99 -115 -20 -59 -19 -83 5 -104 11 -9
20 -23 20 -31 0 -8 11 -17 24 -20 14 -3 27 -15 31 -25 6 -18 15 -19 199 -14
106 3 205 3 219 -1 l27 -6 0 -550 c0 -303 2 -550 5 -550 2 0 29 11 59 24 95
42 91 14 91 588 l0 497 -35 30 c-19 17 -39 30 -44 31 -5 0 -18 7 -28 17 -10 9
-28 21 -41 27 -12 7 -24 23 -27 36 -5 24 -7 25 -95 25 -85 0 -90 1 -102 25 -6
13 -21 28 -33 32 -11 4 -25 19 -30 33 -5 14 -16 25 -25 25 -8 0 -20 9 -27 20
-15 23 -49 25 -94 6z"/>
<path d="M4027 12508 c13 -45 29 -124 35 -175 11 -86 14 -93 34 -93 20 0 22 4
17 43 -12 89 -87 307 -107 307 -1 0 8 -37 21 -82z"/>
<path d="M6503 12533 l-133 -4 0 -32 c0 -31 3 -34 50 -46 64 -16 106 -52 120
-99 14 -53 13 -969 -1 -1028 -14 -55 -53 -96 -108 -112 -38 -12 -41 -16 -41
-47 l0 -35 285 0 285 0 0 33 c0 30 -4 34 -58 58 -102 45 -97 4 -100 712 l-3
607 -82 -2 c-45 -1 -142 -4 -214 -5z"/>
<path d="M4116 12420 c13 -44 26 -102 30 -130 5 -40 10 -50 25 -50 11 0 19 6
19 14 0 39 -79 246 -94 246 -1 0 7 -36 20 -80z"/>
<path d="M6832 11923 c4 -521 6 -581 21 -613 l17 -35 -5 34 c-3 18 -5 294 -5
612 0 523 -2 579 -16 579 -14 0 -16 -54 -12 -577z"/>
<path d="M4166 12445 c3 -11 15 -42 25 -70 10 -27 23 -69 29 -92 8 -32 16 -43
30 -43 19 0 19 1 1 53 -21 61 -52 123 -76 152 l-17 20 8 -20z"/>
<path d="M6890 12048 c0 -364 2 -410 15 -392 22 29 22 804 0 804 -13 0 -15
-52 -15 -412z"/>
<path d="M6950 12070 c0 -304 2 -350 15 -350 13 0 15 46 15 350 0 304 -2 350
-15 350 -13 0 -15 -46 -15 -350z"/>
<path d="M5800 12352 c0 -26 -5 -53 -12 -60 -8 -8 -62 -12 -175 -12 l-164 0 3
-507 c2 -316 7 -514 13 -525 7 -11 9 150 7 493 l-3 509 153 0 c187 1 198 6
198 94 0 31 -4 56 -10 56 -5 0 -10 -22 -10 -48z"/>
<path d="M7010 12068 c0 -276 2 -310 15 -292 22 29 22 604 0 604 -13 0 -15
-41 -15 -312z"/>
<path d="M4288 12290 c9 -27 22 -50 29 -50 9 0 6 15 -12 50 -14 28 -27 50 -29
50 -2 0 3 -22 12 -50z"/>
<path d="M5860 12319 c0 -11 5 -17 10 -14 6 3 10 13 10 21 0 8 -4 14 -10 14
-5 0 -10 -9 -10 -21z"/>
<path d="M7070 12090 c0 -216 2 -250 15 -250 13 0 15 34 15 250 0 216 -2 250
-15 250 -13 0 -15 -34 -15 -250z"/>
<path d="M6028 12293 l-138 -4 0 -33 c0 -31 2 -33 51 -44 75 -18 106 -44 124
-104 13 -44 15 -165 15 -862 0 -557 -4 -823 -11 -850 -14 -49 -54 -88 -108
-105 -38 -11 -41 -15 -41 -46 l0 -35 285 0 285 0 0 34 c0 30 -4 35 -43 50 -62
24 -95 62 -107 125 -6 34 -10 392 -10 967 l0 914 -82 -2 c-46 -1 -145 -4 -220
-5z"/>
<path d="M7130 12080 c0 -189 2 -220 15 -220 13 0 15 31 15 220 0 189 -2 220
-15 220 -13 0 -15 -31 -15 -220z"/>
<path d="M5050 12265 c0 -11 11 -15 40 -15 29 0 40 4 40 15 0 11 -11 15 -40
15 -29 0 -40 -4 -40 -15z"/>
<path d="M5810 12217 c0 -32 2 -34 51 -45 75 -18 106 -44 124 -106 14 -46 15
-161 13 -889 -3 -803 -2 -836 15 -819 34 35 38 127 35 932 -3 762 -4 786 -23
825 -16 33 -28 43 -65 54 -72 21 -95 35 -98 59 -2 16 -10 22 -28 22 -21 0 -24
-5 -24 -33z"/>
<path d="M2210 12203 c0 -24 8 -32 53 -53 92 -44 87 2 87 -755 0 -757 5 -711
-87 -755 -45 -21 -53 -29 -53 -52 l0 -28 544 0 544 0 5 43 c4 23 9 120 13 215
l7 173 -29 30 c-17 18 -38 29 -55 29 -31 0 -26 9 -64 -140 -35 -136 -86 -208
-163 -230 -20 -5 -126 -10 -234 -10 l-197 0 -5 673 c-3 369 -8 720 -12 780
l-5 107 -175 0 -174 0 0 -27z"/>
<path d="M5110 12205 c0 -8 5 -15 10 -15 6 0 10 7 10 15 0 8 -4 15 -10 15 -5
0 -10 -7 -10 -15z"/>
<path d="M5510 12150 c0 -40 4 -70 10 -70 6 0 10 25 10 55 l0 55 64 0 c74 0
126 9 126 21 0 5 -47 9 -105 9 l-105 0 0 -70z"/>
<path d="M3910 11995 l0 -215 58 0 59 0 22 77 c39 134 88 207 154 232 16 6 80
11 143 11 l114 0 0 -660 c0 -432 -4 -676 -11 -709 -14 -69 -40 -97 -104 -117
-50 -16 -55 -20 -55 -46 l0 -28 280 0 280 0 0 28 c0 26 -5 30 -55 46 -65 20
-91 52 -105 127 -6 31 -10 316 -10 705 l0 654 114 0 c63 0 127 -5 143 -11 66
-25 123 -112 158 -244 10 -36 22 -65 26 -65 5 0 9 86 9 190 0 184 -1 190 -20
190 -12 0 -25 10 -32 25 l-11 25 -579 0 -578 0 0 -215z"/>
<path d="M5750 12177 c0 -32 2 -34 51 -45 75 -18 106 -44 124 -106 13 -45 15
-162 13 -879 -2 -454 1 -822 5 -818 23 23 28 181 25 921 -3 762 -4 786 -23
825 -16 33 -28 43 -65 54 -72 21 -95 35 -98 59 -5 36 -32 27 -32 -11z"/>
<path d="M2130 12163 c0 -24 8 -32 53 -53 93 -45 88 5 85 -768 l-3 -673 22 25
c15 17 23 45 28 88 3 35 5 336 3 670 -3 589 -4 607 -23 633 -11 15 -40 35 -65
44 -32 12 -46 23 -48 39 -2 16 -10 22 -28 22 -20 0 -24 -5 -24 -27z"/>
<path d="M5690 12137 c0 -32 2 -34 51 -45 75 -18 106 -44 124 -106 13 -45 15
-162 13 -874 -2 -452 0 -822 4 -822 19 0 23 139 23 890 0 795 0 816 -20 855
-16 33 -28 43 -65 54 -72 21 -95 35 -98 59 -5 36 -32 27 -32 -11z"/>
<path d="M2933 12060 c3 -55 14 -131 23 -168 18 -72 65 -171 95 -197 17 -16
17 -14 -2 35 -28 74 -46 169 -54 288 l-7 102 416 0 c409 0 416 0 416 20 0 20
-7 20 -447 20 l-446 0 6 -100z"/>
<path d="M5570 12140 c0 -23 10 -26 28 -8 18 18 15 28 -8 28 -13 0 -20 -7 -20
-20z"/>
<path d="M2050 12123 c0 -24 8 -32 53 -53 93 -44 88 4 85 -762 -3 -630 -2
-666 14 -657 10 5 21 22 25 37 5 15 8 320 8 679 0 637 0 652 -20 678 -11 15
-40 35 -65 44 -32 12 -46 23 -48 39 -2 16 -10 22 -28 22 -20 0 -24 -5 -24 -27z"/>
<path d="M3850 11935 l0 -215 60 0 c46 0 60 3 60 14 0 10 -14 16 -42 18 l-43
3 -3 198 c-2 166 -5 197 -17 197 -13 0 -15 -32 -15 -215z"/>
<path d="M5630 12097 c0 -32 2 -34 51 -45 75 -18 106 -44 124 -104 13 -44 15
-166 15 -867 0 -652 3 -813 13 -803 9 10 12 193 12 845 0 812 0 833 -20 872
-16 33 -28 43 -65 54 -72 21 -95 35 -98 59 -5 36 -32 27 -32 -11z"/>
<path d="M1950 12083 c0 -24 8 -32 53 -53 93 -45 88 5 85 -768 -2 -369 0 -672
3 -672 3 0 18 11 32 24 20 18 26 37 32 87 3 35 5 337 3 671 -3 589 -4 607 -23
633 -11 15 -40 35 -65 44 -32 12 -46 23 -48 39 -3 18 -10 22 -38 22 -30 0 -34
-3 -34 -27z"/>
<path d="M3033 11990 c7 -116 29 -215 64 -283 13 -27 26 -47 28 -45 2 1 -3 28
-11 58 -14 53 -33 211 -34 278 l0 32 309 0 c265 0 310 2 315 15 3 8 17 15 31
15 16 0 25 6 25 15 0 13 -47 15 -367 15 l-366 0 6 -100z"/>
<path d="M3790 11875 l0 -215 60 0 c46 0 60 3 60 14 0 10 -14 16 -42 18 l-43
3 -3 198 c-2 166 -5 197 -17 197 -13 0 -15 -32 -15 -215z"/>
<path d="M5570 12057 c0 -32 2 -34 51 -45 75 -18 106 -44 124 -104 13 -44 15
-166 15 -867 0 -652 3 -813 13 -803 9 10 12 193 12 845 0 812 0 833 -20 872
-16 33 -28 43 -65 54 -72 21 -95 35 -98 59 -5 36 -32 27 -32 -11z"/>
<path d="M1850 12043 c0 -24 8 -32 53 -53 93 -45 88 5 85 -768 -3 -724 -4
-706 46 -639 21 28 21 33 21 692 0 649 0 664 -20 690 -11 15 -40 35 -65 44
-32 12 -46 23 -48 39 -3 18 -10 22 -38 22 -30 0 -34 -3 -34 -27z"/>
<path d="M4232 12060 c-62 -15 -45 -20 62 -20 l106 0 -2 -681 c-2 -538 0 -674
9 -652 9 21 12 198 13 696 l0 667 -77 -1 c-43 -1 -93 -5 -111 -9z"/>
<path d="M4720 12055 c0 -12 14 -15 64 -15 36 0 77 -5 93 -11 66 -25 123 -112
158 -244 l18 -65 38 0 c43 0 57 26 17 32 -17 2 -26 19 -48 88 -61 195 -101
230 -262 230 -63 0 -78 -3 -78 -15z"/>
<path d="M5510 12017 c0 -32 2 -34 51 -45 75 -18 106 -44 124 -104 13 -44 15
-166 15 -867 0 -652 3 -813 13 -803 9 10 12 193 12 845 0 812 0 833 -20 872
-16 33 -28 43 -65 54 -72 21 -95 35 -98 59 -5 36 -32 27 -32 -11z"/>
<path d="M1750 12003 c0 -24 8 -32 53 -53 93 -45 88 5 85 -768 -3 -724 -4
-706 46 -639 21 28 21 33 21 692 0 649 0 664 -20 690 -11 15 -40 35 -65 44
-32 12 -46 23 -48 39 -3 18 -10 22 -38 22 -30 0 -34 -3 -34 -27z"/>
<path d="M3730 11815 l0 -215 60 0 c46 0 60 3 60 14 0 10 -14 16 -42 18 l-43
3 -3 198 c-2 166 -5 197 -17 197 -13 0 -15 -32 -15 -215z"/>
<path d="M4180 12003 c-14 -3 -29 -9 -34 -14 -6 -5 30 -9 92 -9 l102 0 0 -667
c0 -435 4 -663 10 -653 6 9 10 269 10 683 l0 667 -77 -1 c-43 -1 -89 -4 -103
-6z"/>
<path d="M4720 11995 c0 -10 10 -15 34 -15 103 0 175 -83 221 -255 l18 -65 58
0 c45 0 59 4 59 14 0 10 -13 16 -42 18 l-41 3 -27 85 c-58 184 -104 230 -232
230 -36 0 -48 -4 -48 -15z"/>
<path d="M3123 11900 c3 -55 14 -131 23 -168 17 -67 51 -148 60 -139 2 2 -2
35 -10 73 -8 38 -17 115 -21 172 l-7 102 245 0 245 0 4 30 5 30 -275 0 -275 0
6 -100z"/>
<path d="M1650 11943 c0 -24 8 -32 53 -53 92 -44 87 3 87 -758 0 -508 3 -663
12 -660 6 2 21 17 32 32 21 27 21 37 21 691 0 654 0 664 -21 691 -11 15 -39
34 -63 42 -23 8 -45 20 -48 28 -3 8 -19 14 -39 14 -30 0 -34 -3 -34 -27z"/>
<path d="M3692 11758 l-2 -218 60 0 c46 0 60 3 60 14 0 11 -15 16 -52 18 l-53
3 -5 200 -6 200 -2 -217z"/>
<path d="M4128 11943 c-44 -11 -10 -23 67 -23 l85 0 0 -645 c0 -423 3 -645 10
-645 7 0 10 227 10 660 l0 660 -77 -1 c-43 -1 -86 -3 -95 -6z"/>
<path d="M4720 11936 c0 -8 15 -19 33 -25 68 -23 126 -111 163 -247 l17 -64
58 0 c45 0 59 4 59 14 0 10 -13 16 -42 18 l-41 3 -27 85 c-45 145 -84 201
-151 220 -47 14 -69 12 -69 -4z"/>
<path d="M5512 11578 c2 -234 7 -381 13 -387 7 -7 9 116 7 367 -2 234 -7 381
-13 387 -7 7 -9 -116 -7 -367z"/>
<path d="M5570 11550 c0 -247 4 -380 10 -380 6 0 10 133 10 380 0 247 -4 380
-10 380 -6 0 -10 -133 -10 -380z"/>
<path d="M3210 11853 c0 -68 16 -182 32 -235 8 -27 17 -38 31 -38 14 0 17 5
13 17 -7 18 -25 188 -26 241 l0 32 133 0 c154 0 207 7 207 26 0 11 -37 14
-195 14 l-195 0 0 -57z"/>
<path d="M3630 11695 l0 -215 60 0 c46 0 60 3 60 14 0 10 -14 16 -42 18 l-43
3 -3 198 c-2 166 -5 197 -17 197 -13 0 -15 -32 -15 -215z"/>
<path d="M5630 11508 c0 -259 3 -398 10 -398 13 0 13 759 0 780 -6 10 -10
-122 -10 -382z"/>
<path d="M4090 11875 c0 -12 15 -15 75 -15 60 0 75 3 75 15 0 12 -15 15 -75
15 -60 0 -75 -3 -75 -15z"/>
<path d="M4720 11868 c0 -6 19 -27 41 -46 46 -40 88 -118 114 -217 l18 -65 58
0 c45 0 59 3 59 14 0 11 -15 16 -52 18 l-51 3 -27 85 c-34 108 -61 161 -100
194 -33 27 -60 34 -60 14z"/>
<path d="M3570 11635 l0 -215 60 0 c46 0 60 3 60 14 0 10 -14 16 -42 18 l-43
3 -3 198 c-2 166 -5 197 -17 197 -13 0 -15 -32 -15 -215z"/>
<path d="M3303 11738 c8 -124 18 -162 41 -166 17 -4 18 3 11 102 l-7 106 96 0
96 0 0 30 0 30 -122 0 -121 0 6 -102z"/>
<path d="M4077 11823 c-17 -16 -3 -23 48 -23 l55 0 0 -640 c0 -420 3 -640 10
-640 7 0 10 225 10 655 l0 655 -58 0 c-32 0 -62 -3 -65 -7z"/>
<path d="M7150 11797 c0 -29 5 -35 39 -50 59 -27 149 -129 336 -387 94 -128
171 -237 173 -241 5 -11 -345 -444 -415 -514 -31 -31 -78 -68 -105 -81 -43
-22 -48 -28 -48 -59 l0 -35 240 0 240 0 0 34 c0 29 -4 34 -30 40 -71 14 -100
87 -64 159 19 36 255 347 264 347 7 -1 220 -303 242 -343 9 -18 17 -49 18 -70
0 -46 -35 -83 -86 -93 -31 -6 -34 -10 -34 -40 l0 -34 290 0 290 0 0 35 c0 29
-5 37 -32 51 -18 9 -59 42 -91 73 -79 75 -451 576 -441 593 5 7 85 108 180
223 189 232 268 312 332 340 37 17 42 23 42 52 l0 33 -240 0 -240 0 0 -34 c0
-27 5 -35 23 -40 84 -21 101 -93 44 -187 -43 -71 -217 -291 -228 -287 -10 4
-201 273 -222 315 -21 40 -22 92 -2 120 9 13 34 28 55 34 36 11 40 15 40 46
l0 33 -285 0 -285 0 0 -33z"/>
<path d="M4720 11777 c0 -20 5 -39 11 -43 17 -10 65 -118 84 -189 l18 -65 58
0 c45 0 59 4 59 14 0 10 -13 16 -42 18 l-41 3 -27 85 c-32 102 -59 157 -94
189 l-26 24 0 -36z"/>
<path d="M7090 11776 c0 -22 6 -36 16 -40 22 -8 22 -8 16 37 -6 48 -32 51 -32
3z"/>
<path d="M7950 11776 c0 -24 5 -35 18 -38 15 -4 17 1 14 34 -5 49 -32 53 -32
4z"/>
<path d="M2611 11282 c-1 -449 0 -492 15 -478 8 9 31 16 50 16 23 0 34 5 34
14 0 25 30 46 63 46 20 0 39 8 50 20 10 12 29 20 50 20 20 0 39 8 50 20 10 12
29 20 50 20 20 0 39 8 50 20 9 11 27 20 40 20 12 0 30 9 40 20 9 11 28 20 41
20 14 0 29 6 33 14 5 8 19 19 32 24 23 8 22 9 -20 49 -24 23 -64 57 -89 77
-25 19 -76 67 -115 107 -38 39 -101 95 -140 124 -98 72 -173 177 -221 305 -11
30 -13 -41 -13 -458z"/>
<path d="M4055 11761 c-6 -5 -19 -11 -30 -14 -11 -3 6 -5 38 -6 l57 -1 0 -640
c0 -420 3 -640 10 -640 7 0 10 225 10 655 l0 655 -38 0 c-21 0 -42 -4 -47 -9z"/>
<path d="M7051 11739 c-1 -32 3 -37 38 -52 59 -26 149 -129 330 -379 91 -125
168 -225 173 -222 11 7 17 -2 -177 264 -181 247 -255 332 -311 352 -25 9 -37
21 -43 43 l-9 30 -1 -36z"/>
<path d="M7912 11740 c-1 -32 3 -37 41 -55 23 -11 48 -31 54 -45 l13 -25 0 26
c0 30 -22 52 -65 66 -22 7 -32 18 -36 39 -7 28 -7 28 -7 -6z"/>
<path d="M3390 11688 c0 -85 8 -108 34 -108 19 0 21 4 18 55 l-4 55 51 0 c50
0 51 1 51 30 l0 30 -75 0 -75 0 0 -62z"/>
<path d="M7011 11699 c-1 -32 3 -37 38 -52 59 -26 149 -129 330 -379 91 -125
168 -225 173 -222 11 7 17 -2 -177 264 -181 247 -255 332 -311 352 -25 9 -37
21 -43 43 l-9 30 -1 -36z"/>
<path d="M7219 11653 c42 -43 152 -183 244 -310 93 -128 173 -235 177 -238 5
-3 11 -1 14 3 6 11 -326 468 -388 534 -40 43 -100 88 -117 88 -4 0 28 -35 70
-77z"/>
<path d="M7872 11700 c-1 -32 3 -37 41 -55 23 -11 48 -31 54 -45 l13 -25 0 26
c0 30 -22 52 -65 66 -22 7 -32 18 -36 39 -7 28 -7 28 -7 -6z"/>
<path d="M8023 11711 c21 -18 27 -31 27 -62 0 -22 -7 -54 -15 -72 -15 -30 -15
-31 1 -12 21 26 44 79 44 103 0 23 -26 47 -60 57 l-25 7 28 -21z"/>
<path d="M3995 11700 c-4 -6 12 -10 39 -10 25 0 46 5 46 10 0 6 -18 10 -39 10
-22 0 -43 -4 -46 -10z"/>
<path d="M6971 11659 c-1 -32 3 -37 38 -52 59 -26 149 -129 330 -379 91 -125
168 -225 173 -222 11 7 17 -2 -177 264 -181 247 -255 332 -311 352 -25 9 -37
21 -43 43 l-9 30 -1 -36z"/>
<path d="M7832 11660 c-1 -32 3 -37 41 -55 23 -11 48 -31 54 -45 l13 -25 0 26
c0 30 -22 52 -65 66 -22 7 -32 18 -36 39 -7 28 -7 28 -7 -6z"/>
<path d="M4720 11642 c0 -23 12 -83 27 -132 l28 -90 57 0 c44 0 58 4 58 14 0
10 -13 16 -42 18 l-41 3 -27 85 c-14 47 -34 99 -43 115 l-16 30 -1 -43z"/>
<path d="M3480 11625 c0 -24 5 -35 14 -35 32 0 46 13 46 41 0 26 -4 29 -30 29
-28 0 -30 -3 -30 -35z"/>
<path d="M4035 11609 l50 -50 3 37 c5 56 -2 64 -55 64 l-47 0 49 -51z"/>
<path d="M3885 11579 c-33 -37 -68 -71 -78 -74 -10 -4 -22 -18 -27 -31 -6 -14
-18 -24 -29 -24 -12 0 -23 -11 -30 -30 -8 -26 -15 -30 -46 -30 -19 0 -61 -11
-93 -24 -105 -44 -201 -59 -346 -54 -121 4 -128 3 -86 -9 25 -7 86 -18 135
-24 253 -31 477 54 673 253 l52 54 -32 30 -33 31 -60 -68z"/>
<path d="M6931 11619 c-1 -32 3 -37 38 -52 59 -26 149 -129 330 -379 91 -125
168 -225 173 -222 11 7 17 -2 -177 264 -181 247 -255 332 -311 352 -25 9 -37
21 -43 43 l-9 30 -1 -36z"/>
<path d="M7792 11620 c-1 -32 3 -37 41 -55 23 -11 48 -31 54 -45 l13 -25 0 26
c0 30 -22 52 -65 66 -22 7 -32 18 -36 39 -7 28 -7 28 -7 -6z"/>
<path d="M6891 11579 c-1 -32 3 -37 38 -52 59 -26 149 -129 330 -379 91 -125
168 -225 173 -222 11 7 17 -2 -177 264 -181 247 -255 332 -311 352 -25 9 -37
21 -43 43 l-9 30 -1 -36z"/>
<path d="M7752 11580 c-1 -32 3 -37 41 -55 23 -11 48 -31 54 -45 l13 -25 0 26
c0 30 -22 52 -65 66 -22 7 -32 18 -36 39 -7 28 -7 28 -7 -6z"/>
<path d="M3994 11519 c-122 -128 -283 -225 -432 -260 -73 -18 -108 -20 -217
-16 -86 3 -153 12 -197 25 -38 10 -68 18 -68 16 0 -11 112 -58 178 -76 103
-27 308 -30 400 -4 133 36 241 99 357 208 71 66 80 91 42 126 l-23 22 -40 -41z"/>
<path d="M6896 11398 c6 -89 19 -160 27 -147 1 2 1 59 -1 127 -3 97 -7 122
-18 122 -12 0 -13 -18 -8 -102z"/>
<path d="M6955 11374 c7 -112 12 -144 23 -144 4 0 6 49 4 109 -2 83 -7 113
-18 122 -14 11 -15 1 -9 -87z"/>
<path d="M4059 11403 c-33 -39 -168 -137 -241 -174 -123 -62 -226 -82 -383
-76 -86 3 -153 12 -197 25 -38 10 -68 18 -68 16 0 -11 112 -58 178 -76 104
-27 308 -30 402 -4 87 23 191 75 268 132 l62 47 0 64 c0 34 -2 63 -4 63 -2 0
-10 -8 -17 -17z"/>
<path d="M7015 11324 c7 -102 12 -134 23 -134 4 0 6 45 4 99 -2 72 -7 103 -18
112 -12 10 -14 0 -9 -77z"/>
<path d="M7077 11268 c5 -86 11 -118 21 -118 11 0 -2 168 -14 180 -9 9 -10 -8
-7 -62z"/>
<path d="M4030 11213 c-69 -54 -191 -111 -288 -134 -73 -18 -107 -20 -217 -16
-71 3 -141 8 -155 11 -14 3 2 -3 35 -14 195 -66 453 -40 621 61 53 33 54 34
54 81 0 26 -1 48 -2 47 -2 0 -23 -16 -48 -36z"/>
<path d="M7140 11197 c0 -56 7 -87 19 -87 9 0 -2 126 -12 136 -4 4 -7 -18 -7
-49z"/>
<path d="M7200 11128 c0 -47 9 -59 75 -104 68 -46 68 -48 -32 90 l-43 58 0
-44z"/>
<path d="M7000 11141 c0 -38 -19 -41 -291 -44 l-264 -2 288 -3 287 -2 0 35 c0
19 -4 35 -10 35 -5 0 -10 -8 -10 -19z"/>
<path d="M7060 11101 c0 -38 -19 -41 -291 -44 l-264 -2 288 -3 287 -2 0 35 c0
19 -4 35 -10 35 -5 0 -10 -8 -10 -19z"/>
<path d="M3997 11069 c-122 -62 -225 -82 -382 -76 -86 3 -153 12 -197 25 -38
10 -68 18 -68 16 0 -2 23 -15 51 -29 112 -57 303 -85 443 -66 77 11 210 51
228 69 5 5 8 30 6 55 l-3 45 -78 -39z"/>
<path d="M7120 11061 c0 -38 -19 -41 -291 -44 l-264 -2 288 -3 287 -2 0 35 c0
19 -4 35 -10 35 -5 0 -10 -8 -10 -19z"/>
<path d="M5622 11050 c-12 -19 -23 -20 -287 -20 -238 0 -275 -2 -275 -15 0
-13 39 -15 295 -15 l295 0 0 35 c0 39 -9 44 -28 15z"/>
<path d="M7180 11021 c0 -38 -19 -41 -291 -44 l-264 -2 288 -3 287 -2 0 35 c0
19 -4 35 -10 35 -5 0 -10 -8 -10 -19z"/>
<path d="M3121 10973 c-5 -21 -17 -65 -25 -99 -9 -34 -23 -78 -31 -98 -20 -48
-3 -38 29 17 22 38 66 173 66 204 0 30 -30 11 -39 -24z"/>
<path d="M7240 10981 c0 -38 -19 -41 -291 -44 l-264 -2 288 -3 287 -2 0 35 c0
19 -4 35 -10 35 -5 0 -10 -8 -10 -19z"/>
<path d="M3041 10933 c-5 -21 -17 -67 -26 -103 -9 -35 -21 -73 -27 -83 -5 -10
-8 -23 -5 -30 10 -32 97 182 97 240 0 30 -30 11 -39 -24z"/>
<path d="M4038 10955 c-15 -9 -67 -25 -115 -36 -74 -18 -108 -20 -218 -16 -86
3 -153 12 -197 25 -38 10 -68 18 -68 16 0 -2 23 -15 51 -29 144 -74 383 -93
552 -45 36 11 37 13 37 55 0 49 -2 51 -42 30z"/>
<path d="M5120 10955 c0 -13 37 -15 275 -15 238 0 275 2 275 15 0 13 -37 15
-275 15 -238 0 -275 -2 -275 -15z"/>
<path d="M7300 10941 c0 -38 -19 -41 -291 -44 l-264 -2 288 -3 287 -2 0 35 c0
19 -4 35 -10 35 -5 0 -10 -8 -10 -19z"/>
<path d="M7766 10942 c-2 -4 36 -63 85 -132 107 -149 121 -173 129 -225 5 -38
6 -39 18 -18 8 15 10 34 5 54 -8 31 -211 328 -225 329 -4 0 -9 -3 -12 -8z"/>
<path d="M2941 10893 c-5 -21 -17 -66 -26 -100 -8 -34 -18 -69 -21 -78 -4 -10
0 -15 15 -15 25 0 44 33 71 131 25 93 25 99 -5 99 -20 0 -26 -7 -34 -37z"/>
<path d="M5180 10895 c0 -13 34 -15 245 -15 211 0 245 2 245 15 0 13 -34 15
-245 15 -211 0 -245 -2 -245 -15z"/>
<path d="M7730 10891 c0 -4 37 -59 82 -122 45 -63 95 -136 111 -164 27 -48 28
-49 22 -15 -7 35 -15 48 -135 218 -60 85 -80 106 -80 83z"/>
<path d="M2841 10853 c-5 -21 -16 -64 -25 -96 l-14 -58 26 3 c24 3 29 11 49
78 29 99 29 110 -2 110 -20 0 -26 -7 -34 -37z"/>
<path d="M7696 10852 c-3 -5 34 -65 83 -133 48 -68 96 -139 105 -157 21 -40
29 -38 17 4 -6 22 -154 241 -196 292 -2 2 -6 -1 -9 -6z"/>
<path d="M2740 10808 c-6 -24 -15 -58 -20 -75 -8 -31 -7 -33 20 -33 26 0 29 4
44 65 21 83 21 85 -9 85 -20 0 -26 -7 -35 -42z"/>
<path d="M5240 10835 c0 -13 31 -15 215 -15 184 0 215 2 215 15 0 13 -31 15
-215 15 -184 0 -215 -2 -215 -15z"/>
<path d="M7660 10801 c0 -7 39 -68 88 -136 48 -67 92 -131 99 -141 11 -18 12
-18 12 1 1 11 -37 74 -85 140 -94 133 -114 156 -114 136z"/>
<path d="M2641 10753 c-15 -52 -14 -53 13 -53 18 0 25 7 30 28 4 15 9 35 12
45 4 13 -1 17 -20 17 -20 0 -27 -7 -35 -37z"/>
<path d="M5300 10775 c0 -13 27 -15 185 -15 158 0 185 2 185 15 0 13 -27 15
-185 15 -158 0 -185 -2 -185 -15z"/>
<path d="M7620 10754 c0 -3 39 -61 88 -129 48 -67 92 -131 99 -141 11 -18 12
-18 12 1 1 21 -175 275 -190 275 -5 0 -9 -3 -9 -6z"/>
<path d="M5360 10715 c0 -13 24 -15 155 -15 131 0 155 2 155 15 0 13 -24 15
-155 15 -131 0 -155 -2 -155 -15z"/>
<path d="M7590 10709 c0 -8 37 -66 83 -130 45 -64 87 -125 94 -135 11 -18 12
-18 12 1 1 11 -38 74 -85 140 -97 136 -104 145 -104 124z"/>
<path d="M2143 10583 c-7 -2 -13 -18 -13 -34 l0 -29 548 2 547 3 -520 5 -520
5 -3 28 c-3 26 -13 31 -39 20z"/>
<path d="M2063 10543 c-7 -2 -13 -18 -13 -34 l0 -29 548 2 547 3 -520 5 -520
5 -3 28 c-3 26 -13 31 -39 20z"/>
<path d="M4230 10510 l0 -30 280 0 c242 0 280 2 280 15 0 13 -35 15 -254 15
-213 0 -256 2 -266 15 -21 25 -40 18 -40 -15z"/>
<path d="M1978 10508 c-22 -7 -28 -16 -28 -39 l0 -29 548 2 547 3 -510 5 -510
5 -3 33 c-4 35 -4 35 -44 20z"/>
<path d="M7077 10483 c-13 -12 -8 -73 6 -73 9 0 11 12 9 40 -4 42 -5 44 -15
33z"/>
<path d="M1878 10468 c-22 -7 -28 -16 -28 -39 l0 -29 548 2 547 3 -510 5 -510
5 -3 33 c-4 35 -4 35 -44 20z"/>
<path d="M4170 10450 l0 -30 280 0 c242 0 280 2 280 15 0 13 -35 15 -254 15
-213 0 -256 2 -266 15 -21 25 -40 18 -40 -15z"/>
<path d="M7860 10445 c0 -24 5 -35 15 -35 10 0 15 11 15 35 0 24 -5 35 -15 35
-10 0 -15 -11 -15 -35z"/>
<path d="M1778 10428 c-22 -7 -28 -16 -28 -39 l0 -29 548 2 547 3 -510 5 -510
5 -3 33 c-4 35 -4 35 -44 20z"/>
<path d="M7821 10408 l-1 -38 293 2 292 3 -285 5 -285 5 -6 30 c-6 29 -7 29
-8 -7z"/>
<path d="M4110 10390 l0 -30 280 0 c242 0 280 2 280 15 0 13 -35 15 -254 15
-213 0 -256 2 -266 15 -21 25 -40 18 -40 -15z"/>
<path d="M7030 10386 c0 -14 25 -16 243 -14 l242 3 -229 2 c-148 2 -234 7
-243 14 -10 9 -13 8 -13 -5z"/>
<path d="M7781 10368 l-1 -38 293 2 292 3 -285 5 -285 5 -6 30 c-6 29 -7 29
-8 -7z"/>
<path d="M1678 10368 c-22 -7 -28 -16 -28 -39 l0 -29 545 0 c476 0 545 2 545
15 0 13 -66 15 -507 17 l-508 3 -3 23 c-4 24 -5 25 -44 10z"/>
<path d="M4070 10332 l0 -32 280 0 c242 0 280 2 280 15 0 13 -36 15 -262 15
-229 0 -264 2 -280 17 -17 15 -18 14 -18 -15z"/>
<path d="M6990 10346 c0 -14 25 -16 243 -14 l242 3 -229 2 c-148 2 -234 7
-243 14 -10 9 -13 8 -13 -5z"/>
<path d="M7741 10328 l-1 -38 293 2 292 3 -285 5 -285 5 -6 30 c-6 29 -7 29
-8 -7z"/>
<path d="M6950 10306 c0 -14 25 -16 243 -14 l242 3 -229 2 c-148 2 -234 7
-243 14 -10 9 -13 8 -13 -5z"/>
<path d="M7701 10288 l-1 -38 293 2 292 3 -285 5 -285 5 -6 30 c-6 29 -7 29
-8 -7z"/>
<path d="M4010 10270 l0 -30 280 0 c242 0 280 2 280 15 0 13 -35 15 -254 15
-213 0 -256 2 -266 15 -21 25 -40 18 -40 -15z"/>
<path d="M6910 10266 c0 -14 25 -16 243 -14 l242 3 -229 2 c-148 2 -234 7
-243 14 -10 9 -13 8 -13 -5z"/>
<path d="M7661 10248 l-1 -38 293 2 292 3 -285 5 -285 5 -6 30 c-6 29 -7 29
-8 -7z"/>
<path d="M5853 10243 c-7 -2 -13 -20 -13 -39 l0 -34 288 2 287 2 -260 6 -260
5 -10 33 c-9 33 -11 34 -32 25z"/>
<path d="M3950 10210 l0 -30 280 0 c242 0 280 2 280 15 0 13 -35 15 -254 15
-213 0 -256 2 -266 15 -21 25 -40 18 -40 -15z"/>
<path d="M6870 10226 c0 -14 25 -16 243 -14 l242 3 -229 2 c-148 2 -234 7
-243 14 -10 9 -13 8 -13 -5z"/>
<path d="M5780 10165 l0 -35 288 2 287 3 -268 2 -269 3 -11 30 c-15 40 -27 38
-27 -5z"/>
<path d="M5720 10125 l0 -35 288 2 287 3 -268 2 -269 3 -11 30 c-15 40 -27 38
-27 -5z"/>
<path d="M5660 10085 l0 -35 288 2 287 3 -268 2 -269 3 -11 30 c-15 40 -27 38
-27 -5z"/>
<path d="M5600 10045 l0 -35 288 2 287 3 -268 2 -269 3 -11 30 c-15 40 -27 38
-27 -5z"/>
<path d="M5540 10005 l0 -35 288 2 287 3 -268 2 -269 3 -11 30 c-15 40 -27 38
-27 -5z"/>
<path d="M6540 12960 l0 -140 135 0 135 0 0 140 0 140 -135 0 -135 0 0 -140z"/>
<path d="M6838 12928 l-3 -133 -120 -5 -120 -6 138 -2 137 -2 0 140 c0 117 -2
140 -15 140 -12 0 -15 -24 -17 -132z"/>
<path d="M6898 12888 l-3 -133 -120 -5 -120 -6 138 -2 137 -2 0 140 c0 117 -2
140 -15 140 -12 0 -15 -24 -17 -132z"/>
<path d="M6958 12848 l-3 -133 -120 -5 -120 -6 138 -2 137 -2 0 140 c0 117 -2
140 -15 140 -12 0 -15 -24 -17 -132z"/>
<path d="M7018 12808 l-3 -133 -120 -5 -120 -6 138 -2 137 -2 0 140 c0 117 -2
140 -15 140 -12 0 -15 -24 -17 -132z"/>
<path d="M7078 12768 l-3 -133 -120 -5 -120 -6 138 -2 137 -2 0 140 c0 117 -2
140 -15 140 -12 0 -15 -24 -17 -132z"/>
<path d="M7138 12728 l-3 -133 -120 -5 -120 -6 138 -2 137 -2 0 140 c0 117 -2
140 -15 140 -12 0 -15 -24 -17 -132z"/>
</g>
</svg>
